<?xml version="1.0" encoding="UTF-8" standalone="no"?>
<!DOCTYPE svg PUBLIC "-//W3C//DTD SVG 1.1//EN" "http://www.w3.org/Graphics/SVG/1.1/DTD/svg11.dtd">
<svg width="100%" height="100%" viewBox="0 0 1598 804" version="1.1" xmlns="http://www.w3.org/2000/svg" xmlns:xlink="http://www.w3.org/1999/xlink" xml:space="preserve" xmlns:serif="http://www.serif.com/" style="fill-rule:evenodd;clip-rule:evenodd;stroke-linejoin:round;stroke-miterlimit:2;">
    <g transform="matrix(1,0,0,1,-35.4655,-174.636)">
        <g transform="matrix(1.23038,0,0,1.23038,-194.867,-114.039)">
            <g transform="matrix(0.662713,0,0,0.662713,358.515,97.287)">
                <g transform="matrix(301.546,0,0,301.546,458.71,504)">
                    <path d="M0.711,-0.525C0.711,-0.519 0.705,-0.516 0.693,-0.516C0.687,-0.516 0.684,-0.518 0.683,-0.523C0.668,-0.57 0.648,-0.603 0.621,-0.622C0.594,-0.642 0.555,-0.652 0.503,-0.652L0.456,-0.652C0.439,-0.652 0.428,-0.649 0.422,-0.644C0.416,-0.638 0.413,-0.628 0.413,-0.614L0.413,-0.106C0.413,-0.083 0.416,-0.067 0.422,-0.057C0.428,-0.048 0.438,-0.04 0.453,-0.035C0.468,-0.029 0.489,-0.025 0.517,-0.022C0.522,-0.021 0.525,-0.016 0.525,-0.008C0.525,0.001 0.522,0.006 0.517,0.006C0.494,0.006 0.467,0.005 0.437,0.003C0.407,0.001 0.383,-0 0.363,-0C0.343,-0 0.318,0.001 0.288,0.003C0.257,0.005 0.23,0.006 0.208,0.006C0.203,0.006 0.2,0.001 0.2,-0.008C0.2,-0.016 0.203,-0.021 0.208,-0.022C0.248,-0.026 0.276,-0.034 0.29,-0.044C0.305,-0.054 0.312,-0.075 0.312,-0.106L0.312,-0.614C0.312,-0.628 0.309,-0.638 0.303,-0.644C0.297,-0.649 0.286,-0.652 0.269,-0.652L0.23,-0.652C0.183,-0.652 0.14,-0.64 0.102,-0.616C0.064,-0.592 0.039,-0.561 0.027,-0.523C0.025,-0.518 0.022,-0.516 0.016,-0.516C0.005,-0.516 -0.001,-0.519 -0.001,-0.527C0.018,-0.577 0.035,-0.634 0.052,-0.698C0.097,-0.688 0.201,-0.684 0.363,-0.684C0.529,-0.684 0.635,-0.688 0.681,-0.698C0.685,-0.654 0.695,-0.597 0.711,-0.525Z" style="fill:rgb(0,27,51);fill-rule:nonzero;"/>
                </g>
                <g transform="matrix(301.546,0,0,301.546,673.11,504)">
                    <path d="M0.55,-0.008C0.55,0.001 0.547,0.006 0.542,0.006C0.528,0.006 0.512,0.005 0.492,0.003C0.471,0.001 0.452,-0 0.436,-0C0.419,-0 0.4,0.001 0.379,0.003C0.359,0.005 0.342,0.006 0.329,0.006C0.324,0.006 0.321,0.001 0.321,-0.008C0.321,-0.016 0.324,-0.021 0.329,-0.022C0.352,-0.024 0.367,-0.031 0.374,-0.041C0.381,-0.051 0.385,-0.073 0.385,-0.106L0.385,-0.273C0.385,-0.345 0.352,-0.381 0.287,-0.381C0.246,-0.381 0.21,-0.364 0.18,-0.331L0.18,-0.106C0.18,-0.076 0.184,-0.055 0.193,-0.044C0.202,-0.032 0.219,-0.025 0.244,-0.022C0.249,-0.021 0.252,-0.016 0.252,-0.008C0.252,0.001 0.249,0.006 0.244,0.006C0.23,0.006 0.213,0.005 0.191,0.003C0.166,0.001 0.145,-0 0.129,-0C0.112,-0 0.093,0.001 0.072,0.003C0.053,0.005 0.037,0.006 0.023,0.006C0.018,0.006 0.015,0.001 0.015,-0.008C0.015,-0.016 0.018,-0.021 0.023,-0.022C0.051,-0.025 0.069,-0.031 0.078,-0.041C0.086,-0.051 0.09,-0.073 0.09,-0.106L0.09,-0.571C0.09,-0.598 0.087,-0.615 0.08,-0.624C0.074,-0.632 0.059,-0.637 0.035,-0.64C0.03,-0.641 0.027,-0.645 0.027,-0.653C0.027,-0.661 0.03,-0.666 0.035,-0.666C0.092,-0.679 0.134,-0.697 0.162,-0.719C0.167,-0.723 0.171,-0.725 0.174,-0.725C0.183,-0.725 0.188,-0.722 0.188,-0.717C0.183,-0.662 0.18,-0.604 0.18,-0.543L0.18,-0.373C0.228,-0.418 0.275,-0.441 0.321,-0.441C0.368,-0.441 0.406,-0.428 0.433,-0.402C0.46,-0.376 0.474,-0.341 0.474,-0.297L0.474,-0.106C0.474,-0.073 0.478,-0.052 0.486,-0.042C0.495,-0.032 0.513,-0.025 0.542,-0.022C0.547,-0.021 0.55,-0.016 0.55,-0.008Z" style="fill:rgb(0,27,51);fill-rule:nonzero;"/>
                </g>
                <g transform="matrix(301.546,0,0,301.546,840.166,504)">
                    <path d="M0.431,-0.278C0.431,-0.269 0.425,-0.264 0.413,-0.264L0.139,-0.264C0.137,-0.246 0.136,-0.227 0.136,-0.208C0.136,-0.154 0.149,-0.113 0.174,-0.084C0.2,-0.055 0.236,-0.041 0.283,-0.041C0.307,-0.041 0.331,-0.047 0.355,-0.06C0.379,-0.073 0.398,-0.089 0.413,-0.109L0.415,-0.11C0.418,-0.11 0.421,-0.108 0.424,-0.104C0.427,-0.1 0.428,-0.096 0.428,-0.091C0.428,-0.084 0.417,-0.069 0.396,-0.047C0.375,-0.025 0.352,-0.008 0.327,0.004C0.302,0.015 0.275,0.021 0.248,0.021C0.188,0.021 0.137,-0.001 0.097,-0.045C0.056,-0.089 0.035,-0.143 0.035,-0.207C0.035,-0.272 0.055,-0.328 0.095,-0.373C0.135,-0.418 0.186,-0.441 0.248,-0.441C0.3,-0.441 0.343,-0.424 0.378,-0.39C0.413,-0.356 0.431,-0.319 0.431,-0.278ZM0.34,-0.322C0.34,-0.347 0.331,-0.368 0.314,-0.384C0.297,-0.401 0.275,-0.409 0.248,-0.409C0.222,-0.409 0.2,-0.398 0.181,-0.377C0.162,-0.355 0.15,-0.327 0.143,-0.292L0.282,-0.296C0.303,-0.296 0.318,-0.298 0.327,-0.302C0.336,-0.306 0.34,-0.312 0.34,-0.322Z" style="fill:rgb(0,27,51);fill-rule:nonzero;"/>
                </g>
                <g transform="matrix(301.546,0,0,301.546,257.127,805.546)">
                    <path d="M0.35,-0.123C0.35,-0.082 0.334,-0.048 0.302,-0.021C0.27,0.007 0.231,0.021 0.186,0.021C0.17,0.021 0.145,0.018 0.112,0.011C0.087,0.006 0.07,0.003 0.061,0.003C0.058,-0.02 0.052,-0.056 0.043,-0.104C0.043,-0.109 0.047,-0.111 0.057,-0.111C0.065,-0.111 0.07,-0.108 0.072,-0.103C0.079,-0.078 0.094,-0.057 0.117,-0.039C0.14,-0.02 0.163,-0.011 0.187,-0.011C0.212,-0.011 0.231,-0.018 0.245,-0.032C0.259,-0.045 0.266,-0.064 0.266,-0.089C0.266,-0.105 0.26,-0.119 0.249,-0.131C0.237,-0.142 0.212,-0.157 0.174,-0.175C0.124,-0.198 0.09,-0.22 0.074,-0.24C0.058,-0.26 0.05,-0.285 0.05,-0.313C0.05,-0.348 0.065,-0.378 0.096,-0.403C0.126,-0.428 0.162,-0.441 0.203,-0.441C0.22,-0.441 0.245,-0.438 0.276,-0.432C0.293,-0.429 0.305,-0.427 0.31,-0.427C0.311,-0.388 0.313,-0.354 0.317,-0.327C0.317,-0.322 0.312,-0.319 0.302,-0.319C0.294,-0.319 0.289,-0.322 0.288,-0.327C0.284,-0.351 0.275,-0.371 0.261,-0.386C0.246,-0.401 0.228,-0.409 0.208,-0.409C0.156,-0.409 0.13,-0.386 0.13,-0.341C0.13,-0.326 0.136,-0.312 0.149,-0.299C0.161,-0.286 0.188,-0.269 0.229,-0.248C0.278,-0.223 0.311,-0.202 0.327,-0.184C0.342,-0.166 0.35,-0.146 0.35,-0.123Z" style="fill:rgb(0,27,51);fill-rule:nonzero;"/>
                </g>
                <g transform="matrix(301.546,0,0,301.546,372.317,805.546)">
                    <path d="M0.421,-0.362C0.421,-0.335 0.407,-0.321 0.38,-0.321C0.368,-0.321 0.359,-0.324 0.351,-0.329C0.344,-0.334 0.336,-0.344 0.329,-0.361C0.32,-0.381 0.31,-0.394 0.3,-0.4C0.29,-0.406 0.276,-0.409 0.26,-0.409C0.22,-0.409 0.189,-0.392 0.168,-0.359C0.147,-0.325 0.136,-0.276 0.136,-0.212C0.136,-0.158 0.149,-0.115 0.176,-0.082C0.203,-0.049 0.238,-0.033 0.283,-0.033C0.334,-0.033 0.374,-0.049 0.404,-0.081L0.406,-0.082C0.409,-0.082 0.412,-0.08 0.415,-0.076C0.418,-0.072 0.419,-0.068 0.419,-0.063C0.419,-0.056 0.409,-0.045 0.39,-0.029C0.37,-0.012 0.349,0 0.326,0.009C0.303,0.017 0.278,0.021 0.252,0.021C0.192,0.021 0.141,-0.001 0.099,-0.045C0.056,-0.089 0.035,-0.144 0.035,-0.211C0.035,-0.277 0.057,-0.332 0.102,-0.376C0.146,-0.419 0.199,-0.441 0.26,-0.441C0.305,-0.441 0.343,-0.433 0.374,-0.418C0.405,-0.402 0.421,-0.384 0.421,-0.362Z" style="fill:rgb(0,27,51);fill-rule:nonzero;"/>
                </g>
                <g transform="matrix(301.546,0,0,301.546,511.632,805.546)">
                    <path d="M0.196,-0.613C0.196,-0.599 0.191,-0.586 0.181,-0.576C0.171,-0.566 0.158,-0.561 0.144,-0.561C0.13,-0.561 0.117,-0.566 0.107,-0.576C0.097,-0.586 0.092,-0.599 0.092,-0.613C0.092,-0.627 0.097,-0.64 0.107,-0.65C0.117,-0.66 0.129,-0.665 0.144,-0.665C0.158,-0.665 0.171,-0.66 0.181,-0.65C0.191,-0.64 0.196,-0.627 0.196,-0.613ZM0.266,-0.008C0.266,0.001 0.263,0.006 0.258,0.006C0.244,0.006 0.227,0.005 0.206,0.003C0.182,0.001 0.161,-0 0.145,-0C0.128,-0 0.108,0.001 0.085,0.003C0.064,0.005 0.047,0.006 0.033,0.006C0.028,0.006 0.025,0.001 0.025,-0.008C0.025,-0.016 0.028,-0.021 0.033,-0.022C0.061,-0.025 0.08,-0.032 0.088,-0.042C0.096,-0.052 0.1,-0.073 0.1,-0.106L0.1,-0.291C0.1,-0.318 0.097,-0.335 0.09,-0.344C0.083,-0.352 0.068,-0.357 0.045,-0.36C0.04,-0.36 0.037,-0.364 0.037,-0.373C0.037,-0.381 0.04,-0.385 0.045,-0.385C0.08,-0.394 0.109,-0.404 0.131,-0.414C0.153,-0.424 0.167,-0.432 0.173,-0.439C0.176,-0.443 0.18,-0.445 0.184,-0.445C0.193,-0.445 0.198,-0.442 0.198,-0.437C0.193,-0.362 0.19,-0.304 0.19,-0.263L0.19,-0.106C0.19,-0.073 0.194,-0.052 0.202,-0.042C0.21,-0.032 0.229,-0.025 0.258,-0.022C0.263,-0.021 0.266,-0.016 0.266,-0.008Z" style="fill:rgb(0,27,51);fill-rule:nonzero;"/>
                </g>
                <g transform="matrix(301.546,0,0,301.546,596.065,805.546)">
                    <path d="M0.431,-0.278C0.431,-0.269 0.425,-0.264 0.413,-0.264L0.139,-0.264C0.137,-0.246 0.136,-0.227 0.136,-0.208C0.136,-0.154 0.149,-0.113 0.174,-0.084C0.2,-0.055 0.236,-0.041 0.283,-0.041C0.307,-0.041 0.331,-0.047 0.355,-0.06C0.379,-0.073 0.398,-0.089 0.413,-0.109L0.415,-0.11C0.418,-0.11 0.421,-0.108 0.424,-0.104C0.427,-0.1 0.428,-0.096 0.428,-0.091C0.428,-0.084 0.417,-0.069 0.396,-0.047C0.375,-0.025 0.352,-0.008 0.327,0.004C0.302,0.015 0.275,0.021 0.248,0.021C0.188,0.021 0.137,-0.001 0.097,-0.045C0.056,-0.089 0.035,-0.143 0.035,-0.207C0.035,-0.272 0.055,-0.328 0.095,-0.373C0.135,-0.418 0.186,-0.441 0.248,-0.441C0.3,-0.441 0.343,-0.424 0.378,-0.39C0.413,-0.356 0.431,-0.319 0.431,-0.278ZM0.34,-0.322C0.34,-0.347 0.331,-0.368 0.314,-0.384C0.297,-0.401 0.275,-0.409 0.248,-0.409C0.222,-0.409 0.2,-0.398 0.181,-0.377C0.162,-0.355 0.15,-0.327 0.143,-0.292L0.282,-0.296C0.303,-0.296 0.318,-0.298 0.327,-0.302C0.336,-0.306 0.34,-0.312 0.34,-0.322Z" style="fill:rgb(0,27,51);fill-rule:nonzero;"/>
                </g>
                <g transform="matrix(301.546,0,0,301.546,737.188,805.546)">
                    <path d="M0.543,-0.008C0.543,0.001 0.54,0.006 0.535,0.006C0.521,0.006 0.505,0.005 0.486,0.003C0.464,0.001 0.445,-0 0.429,-0C0.412,-0 0.393,0.001 0.372,0.003C0.352,0.005 0.335,0.006 0.322,0.006C0.317,0.006 0.314,0.001 0.314,-0.008C0.314,-0.016 0.317,-0.021 0.322,-0.022C0.345,-0.024 0.36,-0.031 0.367,-0.041C0.374,-0.051 0.378,-0.073 0.378,-0.106L0.378,-0.273C0.378,-0.31 0.371,-0.338 0.356,-0.355C0.341,-0.372 0.319,-0.381 0.288,-0.381C0.269,-0.381 0.252,-0.377 0.237,-0.37C0.222,-0.363 0.206,-0.35 0.189,-0.331L0.189,-0.106C0.189,-0.073 0.193,-0.051 0.2,-0.041C0.207,-0.031 0.222,-0.024 0.245,-0.022C0.25,-0.021 0.253,-0.016 0.253,-0.008C0.253,0.001 0.25,0.006 0.245,0.006C0.231,0.006 0.215,0.005 0.195,0.003C0.173,0.001 0.154,-0 0.138,-0C0.122,-0 0.103,0.001 0.082,0.003C0.062,0.005 0.046,0.006 0.032,0.006C0.027,0.006 0.024,0.001 0.024,-0.008C0.024,-0.016 0.027,-0.021 0.032,-0.022C0.061,-0.025 0.079,-0.032 0.088,-0.042C0.096,-0.052 0.1,-0.074 0.1,-0.106L0.1,-0.291C0.1,-0.318 0.097,-0.335 0.09,-0.344C0.083,-0.352 0.068,-0.357 0.044,-0.36C0.039,-0.36 0.036,-0.364 0.036,-0.373C0.036,-0.381 0.039,-0.385 0.044,-0.385C0.077,-0.393 0.105,-0.403 0.127,-0.413C0.149,-0.424 0.162,-0.432 0.168,-0.439C0.171,-0.443 0.175,-0.445 0.179,-0.445C0.188,-0.445 0.193,-0.442 0.193,-0.437L0.189,-0.374C0.237,-0.419 0.282,-0.441 0.323,-0.441C0.368,-0.441 0.404,-0.428 0.429,-0.402C0.455,-0.376 0.468,-0.341 0.468,-0.297L0.468,-0.106C0.468,-0.073 0.472,-0.052 0.48,-0.042C0.488,-0.032 0.506,-0.025 0.535,-0.022C0.54,-0.021 0.543,-0.016 0.543,-0.008Z" style="fill:rgb(0,27,51);fill-rule:nonzero;"/>
                </g>
                <g transform="matrix(301.546,0,0,301.546,902.435,805.546)">
                    <path d="M0.421,-0.362C0.421,-0.335 0.407,-0.321 0.38,-0.321C0.368,-0.321 0.359,-0.324 0.351,-0.329C0.344,-0.334 0.336,-0.344 0.329,-0.361C0.32,-0.381 0.31,-0.394 0.3,-0.4C0.29,-0.406 0.276,-0.409 0.26,-0.409C0.22,-0.409 0.189,-0.392 0.168,-0.359C0.147,-0.325 0.136,-0.276 0.136,-0.212C0.136,-0.158 0.149,-0.115 0.176,-0.082C0.203,-0.049 0.238,-0.033 0.283,-0.033C0.334,-0.033 0.374,-0.049 0.404,-0.081L0.406,-0.082C0.409,-0.082 0.412,-0.08 0.415,-0.076C0.418,-0.072 0.419,-0.068 0.419,-0.063C0.419,-0.056 0.409,-0.045 0.39,-0.029C0.37,-0.012 0.349,0 0.326,0.009C0.303,0.017 0.278,0.021 0.252,0.021C0.192,0.021 0.141,-0.001 0.099,-0.045C0.056,-0.089 0.035,-0.144 0.035,-0.211C0.035,-0.277 0.057,-0.332 0.102,-0.376C0.146,-0.419 0.199,-0.441 0.26,-0.441C0.305,-0.441 0.343,-0.433 0.374,-0.418C0.405,-0.402 0.421,-0.384 0.421,-0.362Z" style="fill:rgb(0,27,51);fill-rule:nonzero;"/>
                </g>
                <g transform="matrix(301.546,0,0,301.546,1041.75,805.546)">
                    <path d="M0.431,-0.278C0.431,-0.269 0.425,-0.264 0.413,-0.264L0.139,-0.264C0.137,-0.246 0.136,-0.227 0.136,-0.208C0.136,-0.154 0.149,-0.113 0.174,-0.084C0.2,-0.055 0.236,-0.041 0.283,-0.041C0.307,-0.041 0.331,-0.047 0.355,-0.06C0.379,-0.073 0.398,-0.089 0.413,-0.109L0.415,-0.11C0.418,-0.11 0.421,-0.108 0.424,-0.104C0.427,-0.1 0.428,-0.096 0.428,-0.091C0.428,-0.084 0.417,-0.069 0.396,-0.047C0.375,-0.025 0.352,-0.008 0.327,0.004C0.302,0.015 0.275,0.021 0.248,0.021C0.188,0.021 0.137,-0.001 0.097,-0.045C0.056,-0.089 0.035,-0.143 0.035,-0.207C0.035,-0.272 0.055,-0.328 0.095,-0.373C0.135,-0.418 0.186,-0.441 0.248,-0.441C0.3,-0.441 0.343,-0.424 0.378,-0.39C0.413,-0.356 0.431,-0.319 0.431,-0.278ZM0.34,-0.322C0.34,-0.347 0.331,-0.368 0.314,-0.384C0.297,-0.401 0.275,-0.409 0.248,-0.409C0.222,-0.409 0.2,-0.398 0.181,-0.377C0.162,-0.355 0.15,-0.327 0.143,-0.292L0.282,-0.296C0.303,-0.296 0.318,-0.298 0.327,-0.302C0.336,-0.306 0.34,-0.312 0.34,-0.322Z" style="fill:rgb(0,27,51);fill-rule:nonzero;"/>
                </g>
                <g transform="matrix(301.546,0,0,301.546,276.727,1107.09)">
                    <path d="M0.508,-0.212C0.508,-0.151 0.486,-0.096 0.443,-0.05C0.399,-0.003 0.349,0.021 0.292,0.021C0.26,0.021 0.23,0.014 0.2,0.001C0.18,-0.008 0.162,-0.013 0.146,-0.013C0.121,-0.013 0.105,-0.002 0.097,0.019C0.095,0.023 0.091,0.025 0.084,0.025C0.075,0.025 0.071,0.022 0.071,0.017C0.074,-0.011 0.075,-0.045 0.075,-0.084L0.075,-0.572C0.075,-0.599 0.072,-0.616 0.065,-0.625C0.058,-0.633 0.043,-0.638 0.02,-0.641C0.015,-0.641 0.012,-0.645 0.012,-0.653C0.012,-0.662 0.015,-0.667 0.02,-0.667C0.079,-0.682 0.122,-0.7 0.147,-0.72C0.152,-0.724 0.156,-0.725 0.159,-0.726C0.168,-0.725 0.173,-0.723 0.173,-0.718C0.168,-0.645 0.165,-0.587 0.165,-0.543L0.165,-0.393C0.196,-0.424 0.235,-0.44 0.28,-0.44C0.348,-0.44 0.403,-0.42 0.445,-0.379C0.487,-0.337 0.508,-0.282 0.508,-0.212ZM0.407,-0.208C0.407,-0.269 0.395,-0.317 0.371,-0.352C0.346,-0.387 0.312,-0.404 0.268,-0.404C0.244,-0.404 0.221,-0.395 0.199,-0.377C0.176,-0.359 0.165,-0.342 0.165,-0.324L0.165,-0.093C0.165,-0.075 0.178,-0.057 0.205,-0.039C0.232,-0.021 0.257,-0.012 0.28,-0.012C0.32,-0.012 0.351,-0.03 0.374,-0.066C0.396,-0.101 0.407,-0.149 0.407,-0.208Z" style="fill:rgb(0,27,51);fill-rule:nonzero;"/>
                </g>
                <g transform="matrix(301.546,0,0,301.546,441.975,1107.09)">
                    <path d="M0.431,-0.278C0.431,-0.269 0.425,-0.264 0.413,-0.264L0.139,-0.264C0.137,-0.246 0.136,-0.227 0.136,-0.208C0.136,-0.154 0.149,-0.113 0.174,-0.084C0.2,-0.055 0.236,-0.041 0.283,-0.041C0.307,-0.041 0.331,-0.047 0.355,-0.06C0.379,-0.073 0.398,-0.089 0.413,-0.109L0.415,-0.11C0.418,-0.11 0.421,-0.108 0.424,-0.104C0.427,-0.1 0.428,-0.096 0.428,-0.091C0.428,-0.084 0.417,-0.069 0.396,-0.047C0.375,-0.025 0.352,-0.008 0.327,0.004C0.302,0.015 0.275,0.021 0.248,0.021C0.188,0.021 0.137,-0.001 0.097,-0.045C0.056,-0.089 0.035,-0.143 0.035,-0.207C0.035,-0.272 0.055,-0.328 0.095,-0.373C0.135,-0.418 0.186,-0.441 0.248,-0.441C0.3,-0.441 0.343,-0.424 0.378,-0.39C0.413,-0.356 0.431,-0.319 0.431,-0.278ZM0.34,-0.322C0.34,-0.347 0.331,-0.368 0.314,-0.384C0.297,-0.401 0.275,-0.409 0.248,-0.409C0.222,-0.409 0.2,-0.398 0.181,-0.377C0.162,-0.355 0.15,-0.327 0.143,-0.292L0.282,-0.296C0.303,-0.296 0.318,-0.298 0.327,-0.302C0.336,-0.306 0.34,-0.312 0.34,-0.322Z" style="fill:rgb(0,27,51);fill-rule:nonzero;"/>
                </g>
                <g transform="matrix(301.546,0,0,301.546,583.098,1107.09)">
                    <path d="M0.55,-0.008C0.55,0.001 0.547,0.006 0.542,0.006C0.528,0.006 0.512,0.005 0.492,0.003C0.471,0.001 0.452,-0 0.436,-0C0.419,-0 0.4,0.001 0.379,0.003C0.359,0.005 0.342,0.006 0.329,0.006C0.324,0.006 0.321,0.001 0.321,-0.008C0.321,-0.016 0.324,-0.021 0.329,-0.022C0.352,-0.024 0.367,-0.031 0.374,-0.041C0.381,-0.051 0.385,-0.073 0.385,-0.106L0.385,-0.273C0.385,-0.345 0.352,-0.381 0.287,-0.381C0.246,-0.381 0.21,-0.364 0.18,-0.331L0.18,-0.106C0.18,-0.076 0.184,-0.055 0.193,-0.044C0.202,-0.032 0.219,-0.025 0.244,-0.022C0.249,-0.021 0.252,-0.016 0.252,-0.008C0.252,0.001 0.249,0.006 0.244,0.006C0.23,0.006 0.213,0.005 0.191,0.003C0.166,0.001 0.145,-0 0.129,-0C0.112,-0 0.093,0.001 0.072,0.003C0.053,0.005 0.037,0.006 0.023,0.006C0.018,0.006 0.015,0.001 0.015,-0.008C0.015,-0.016 0.018,-0.021 0.023,-0.022C0.051,-0.025 0.069,-0.031 0.078,-0.041C0.086,-0.051 0.09,-0.073 0.09,-0.106L0.09,-0.571C0.09,-0.598 0.087,-0.615 0.08,-0.624C0.074,-0.632 0.059,-0.637 0.035,-0.64C0.03,-0.641 0.027,-0.645 0.027,-0.653C0.027,-0.661 0.03,-0.666 0.035,-0.666C0.092,-0.679 0.134,-0.697 0.162,-0.719C0.167,-0.723 0.171,-0.725 0.174,-0.725C0.183,-0.725 0.188,-0.722 0.188,-0.717C0.183,-0.662 0.18,-0.604 0.18,-0.543L0.18,-0.373C0.228,-0.418 0.275,-0.441 0.321,-0.441C0.368,-0.441 0.406,-0.428 0.433,-0.402C0.46,-0.376 0.474,-0.341 0.474,-0.297L0.474,-0.106C0.474,-0.073 0.478,-0.052 0.486,-0.042C0.495,-0.032 0.513,-0.025 0.542,-0.022C0.547,-0.021 0.55,-0.016 0.55,-0.008Z" style="fill:rgb(0,27,51);fill-rule:nonzero;"/>
                </g>
                <g transform="matrix(301.546,0,0,301.546,750.155,1107.09)">
                    <path d="M0.196,-0.613C0.196,-0.599 0.191,-0.586 0.181,-0.576C0.171,-0.566 0.158,-0.561 0.144,-0.561C0.13,-0.561 0.117,-0.566 0.107,-0.576C0.097,-0.586 0.092,-0.599 0.092,-0.613C0.092,-0.627 0.097,-0.64 0.107,-0.65C0.117,-0.66 0.129,-0.665 0.144,-0.665C0.158,-0.665 0.171,-0.66 0.181,-0.65C0.191,-0.64 0.196,-0.627 0.196,-0.613ZM0.266,-0.008C0.266,0.001 0.263,0.006 0.258,0.006C0.244,0.006 0.227,0.005 0.206,0.003C0.182,0.001 0.161,-0 0.145,-0C0.128,-0 0.108,0.001 0.085,0.003C0.064,0.005 0.047,0.006 0.033,0.006C0.028,0.006 0.025,0.001 0.025,-0.008C0.025,-0.016 0.028,-0.021 0.033,-0.022C0.061,-0.025 0.08,-0.032 0.088,-0.042C0.096,-0.052 0.1,-0.073 0.1,-0.106L0.1,-0.291C0.1,-0.318 0.097,-0.335 0.09,-0.344C0.083,-0.352 0.068,-0.357 0.045,-0.36C0.04,-0.36 0.037,-0.364 0.037,-0.373C0.037,-0.381 0.04,-0.385 0.045,-0.385C0.08,-0.394 0.109,-0.404 0.131,-0.414C0.153,-0.424 0.167,-0.432 0.173,-0.439C0.176,-0.443 0.18,-0.445 0.184,-0.445C0.193,-0.445 0.198,-0.442 0.198,-0.437C0.193,-0.362 0.19,-0.304 0.19,-0.263L0.19,-0.106C0.19,-0.073 0.194,-0.052 0.202,-0.042C0.21,-0.032 0.229,-0.025 0.258,-0.022C0.263,-0.021 0.266,-0.016 0.266,-0.008Z" style="fill:rgb(0,27,51);fill-rule:nonzero;"/>
                </g>
                <g transform="matrix(301.546,0,0,301.546,834.587,1107.09)">
                    <path d="M0.543,-0.008C0.543,0.001 0.54,0.006 0.535,0.006C0.521,0.006 0.505,0.005 0.486,0.003C0.464,0.001 0.445,-0 0.429,-0C0.412,-0 0.393,0.001 0.372,0.003C0.352,0.005 0.335,0.006 0.322,0.006C0.317,0.006 0.314,0.001 0.314,-0.008C0.314,-0.016 0.317,-0.021 0.322,-0.022C0.345,-0.024 0.36,-0.031 0.367,-0.041C0.374,-0.051 0.378,-0.073 0.378,-0.106L0.378,-0.273C0.378,-0.31 0.371,-0.338 0.356,-0.355C0.341,-0.372 0.319,-0.381 0.288,-0.381C0.269,-0.381 0.252,-0.377 0.237,-0.37C0.222,-0.363 0.206,-0.35 0.189,-0.331L0.189,-0.106C0.189,-0.073 0.193,-0.051 0.2,-0.041C0.207,-0.031 0.222,-0.024 0.245,-0.022C0.25,-0.021 0.253,-0.016 0.253,-0.008C0.253,0.001 0.25,0.006 0.245,0.006C0.231,0.006 0.215,0.005 0.195,0.003C0.173,0.001 0.154,-0 0.138,-0C0.122,-0 0.103,0.001 0.082,0.003C0.062,0.005 0.046,0.006 0.032,0.006C0.027,0.006 0.024,0.001 0.024,-0.008C0.024,-0.016 0.027,-0.021 0.032,-0.022C0.061,-0.025 0.079,-0.032 0.088,-0.042C0.096,-0.052 0.1,-0.074 0.1,-0.106L0.1,-0.291C0.1,-0.318 0.097,-0.335 0.09,-0.344C0.083,-0.352 0.068,-0.357 0.044,-0.36C0.039,-0.36 0.036,-0.364 0.036,-0.373C0.036,-0.381 0.039,-0.385 0.044,-0.385C0.077,-0.393 0.105,-0.403 0.127,-0.413C0.149,-0.424 0.162,-0.432 0.168,-0.439C0.171,-0.443 0.175,-0.445 0.179,-0.445C0.188,-0.445 0.193,-0.442 0.193,-0.437L0.189,-0.374C0.237,-0.419 0.282,-0.441 0.323,-0.441C0.368,-0.441 0.404,-0.428 0.429,-0.402C0.455,-0.376 0.468,-0.341 0.468,-0.297L0.468,-0.106C0.468,-0.073 0.472,-0.052 0.48,-0.042C0.488,-0.032 0.506,-0.025 0.535,-0.022C0.54,-0.021 0.543,-0.016 0.543,-0.008Z" style="fill:rgb(0,27,51);fill-rule:nonzero;"/>
                </g>
                <g transform="matrix(301.546,0,0,301.546,999.835,1107.09)">
                    <path d="M0.536,-0.027C0.536,-0.02 0.533,-0.016 0.528,-0.016C0.509,-0.013 0.487,-0.009 0.462,-0.002C0.436,0.006 0.417,0.013 0.403,0.02C0.396,0.023 0.39,0.025 0.387,0.025C0.382,0.025 0.379,0.022 0.379,0.017L0.383,-0.037C0.348,0.002 0.303,0.021 0.248,0.021C0.19,0.021 0.141,-0.001 0.101,-0.046C0.06,-0.09 0.04,-0.143 0.04,-0.205C0.04,-0.275 0.062,-0.332 0.107,-0.376C0.152,-0.419 0.208,-0.441 0.276,-0.441C0.315,-0.441 0.35,-0.429 0.383,-0.405L0.383,-0.572C0.383,-0.599 0.38,-0.616 0.373,-0.625C0.366,-0.633 0.351,-0.638 0.327,-0.641C0.322,-0.642 0.319,-0.646 0.319,-0.654C0.319,-0.662 0.322,-0.667 0.327,-0.667C0.358,-0.674 0.386,-0.683 0.409,-0.693C0.432,-0.703 0.447,-0.713 0.455,-0.721C0.458,-0.724 0.462,-0.725 0.466,-0.726C0.475,-0.725 0.48,-0.723 0.48,-0.718C0.474,-0.645 0.472,-0.587 0.472,-0.544L0.472,-0.103C0.472,-0.08 0.475,-0.065 0.482,-0.057C0.488,-0.049 0.503,-0.043 0.528,-0.04C0.533,-0.04 0.536,-0.036 0.536,-0.027ZM0.383,-0.081L0.383,-0.337C0.383,-0.354 0.373,-0.371 0.353,-0.386C0.333,-0.401 0.311,-0.409 0.287,-0.409C0.19,-0.409 0.141,-0.341 0.141,-0.204C0.141,-0.15 0.153,-0.105 0.176,-0.07C0.199,-0.034 0.23,-0.016 0.268,-0.016C0.29,-0.016 0.309,-0.021 0.327,-0.031C0.345,-0.041 0.363,-0.057 0.383,-0.081Z" style="fill:rgb(0,27,51);fill-rule:nonzero;"/>
                </g>
            </g>
        </g>
        <g transform="matrix(1.23038,0,0,1.23038,-194.867,-114.039)">
            <g transform="matrix(4.66908,0,0,4.66908,-1090.99,-3075.81)">
                <g transform="matrix(149.712,0,0,149.712,323.211,759.962)">
                    <path d="M-0.047,0.194L0.045,-0.266L0.092,-0.286L0.06,-0.146C0.084,-0.194 0.107,-0.229 0.128,-0.25C0.149,-0.272 0.173,-0.282 0.198,-0.282C0.218,-0.282 0.233,-0.275 0.245,-0.261C0.256,-0.246 0.262,-0.227 0.262,-0.202C0.262,-0.176 0.257,-0.15 0.246,-0.124C0.236,-0.097 0.222,-0.073 0.203,-0.051C0.17,-0.01 0.133,0.01 0.092,0.01C0.067,0.01 0.046,0.003 0.03,-0.01L-0.021,0.194L-0.047,0.194ZM0.037,-0.042C0.051,-0.016 0.07,-0.002 0.095,-0.002C0.131,-0.002 0.162,-0.032 0.188,-0.09C0.21,-0.137 0.221,-0.176 0.221,-0.208C0.221,-0.225 0.218,-0.239 0.211,-0.248C0.205,-0.257 0.196,-0.262 0.184,-0.262C0.164,-0.262 0.144,-0.249 0.122,-0.224C0.102,-0.198 0.084,-0.17 0.07,-0.139C0.064,-0.126 0.059,-0.113 0.054,-0.099C0.05,-0.085 0.045,-0.071 0.041,-0.056L0.037,-0.042Z" style="fill:rgb(255,227,149);fill-opacity:0.41;fill-rule:nonzero;"/>
                </g>
                <g transform="matrix(149.712,0,0,149.712,370.434,759.962)">
                    <path d="M0.187,-0.076L0.195,-0.068C0.175,-0.042 0.155,-0.022 0.136,-0.01C0.117,0.001 0.096,0.007 0.074,0.007C0.048,0.007 0.027,-0.001 0.011,-0.019C-0.005,-0.037 -0.013,-0.06 -0.013,-0.089C-0.013,-0.118 -0.005,-0.148 0.01,-0.178C0.025,-0.208 0.045,-0.233 0.068,-0.253C0.091,-0.272 0.114,-0.282 0.137,-0.282C0.151,-0.282 0.162,-0.278 0.17,-0.271C0.179,-0.263 0.183,-0.253 0.183,-0.24C0.183,-0.215 0.169,-0.19 0.142,-0.165C0.115,-0.14 0.077,-0.119 0.03,-0.101C0.03,-0.098 0.03,-0.096 0.03,-0.092C0.03,-0.07 0.036,-0.052 0.048,-0.037C0.061,-0.023 0.077,-0.016 0.096,-0.016C0.111,-0.016 0.126,-0.021 0.141,-0.031C0.155,-0.04 0.17,-0.055 0.187,-0.076ZM0.03,-0.113C0.065,-0.128 0.092,-0.146 0.111,-0.165C0.124,-0.178 0.134,-0.192 0.142,-0.207C0.15,-0.222 0.154,-0.236 0.154,-0.248C0.154,-0.263 0.147,-0.271 0.133,-0.271C0.112,-0.271 0.09,-0.254 0.069,-0.22C0.047,-0.187 0.034,-0.151 0.03,-0.113Z" style="fill:rgb(255,227,149);fill-opacity:0.41;fill-rule:nonzero;"/>
                </g>
                <g transform="matrix(149.712,0,0,149.712,406.693,759.962)">
                    <path d="M0.187,-0.076L0.195,-0.068C0.175,-0.042 0.155,-0.022 0.136,-0.01C0.117,0.001 0.096,0.007 0.074,0.007C0.048,0.007 0.027,-0.001 0.011,-0.019C-0.005,-0.037 -0.013,-0.06 -0.013,-0.089C-0.013,-0.118 -0.005,-0.148 0.01,-0.178C0.025,-0.208 0.045,-0.233 0.068,-0.253C0.091,-0.272 0.114,-0.282 0.137,-0.282C0.151,-0.282 0.162,-0.278 0.17,-0.271C0.179,-0.263 0.183,-0.253 0.183,-0.24C0.183,-0.215 0.169,-0.19 0.142,-0.165C0.115,-0.14 0.077,-0.119 0.03,-0.101C0.03,-0.098 0.03,-0.096 0.03,-0.092C0.03,-0.07 0.036,-0.052 0.048,-0.037C0.061,-0.023 0.077,-0.016 0.096,-0.016C0.111,-0.016 0.126,-0.021 0.141,-0.031C0.155,-0.04 0.17,-0.055 0.187,-0.076ZM0.03,-0.113C0.065,-0.128 0.092,-0.146 0.111,-0.165C0.124,-0.178 0.134,-0.192 0.142,-0.207C0.15,-0.222 0.154,-0.236 0.154,-0.248C0.154,-0.263 0.147,-0.271 0.133,-0.271C0.112,-0.271 0.09,-0.254 0.069,-0.22C0.047,-0.187 0.034,-0.151 0.03,-0.113Z" style="fill:rgb(255,227,149);fill-opacity:0.41;fill-rule:nonzero;"/>
                </g>
                <g transform="matrix(149.712,0,0,149.712,442.951,759.962)">
                    <path d="M-0.013,-0.139C0.015,-0.173 0.034,-0.204 0.043,-0.233C0.017,-0.248 0.003,-0.269 0.003,-0.296C0.003,-0.309 0.007,-0.32 0.013,-0.328C0.019,-0.336 0.027,-0.34 0.036,-0.34C0.046,-0.34 0.054,-0.336 0.06,-0.327C0.066,-0.318 0.069,-0.306 0.069,-0.292C0.069,-0.282 0.068,-0.271 0.064,-0.258C0.073,-0.256 0.081,-0.255 0.088,-0.255C0.108,-0.255 0.125,-0.261 0.138,-0.272L0.161,-0.272L0.158,-0.266C0.134,-0.223 0.115,-0.18 0.1,-0.139C0.085,-0.097 0.077,-0.066 0.077,-0.046C0.077,-0.038 0.079,-0.032 0.083,-0.027C0.087,-0.022 0.092,-0.02 0.097,-0.02C0.111,-0.02 0.132,-0.034 0.162,-0.062L0.169,-0.053C0.16,-0.043 0.146,-0.031 0.127,-0.016C0.11,-0.002 0.094,0.005 0.079,0.005C0.066,0.005 0.056,0.001 0.049,-0.008C0.041,-0.016 0.038,-0.028 0.038,-0.042C0.038,-0.067 0.047,-0.098 0.066,-0.135C0.073,-0.149 0.082,-0.165 0.092,-0.183C0.103,-0.201 0.117,-0.222 0.133,-0.247L0.138,-0.254C0.127,-0.244 0.117,-0.237 0.107,-0.233C0.097,-0.229 0.085,-0.227 0.073,-0.227C0.067,-0.227 0.061,-0.228 0.054,-0.229C0.044,-0.198 0.024,-0.165 -0.004,-0.131L-0.013,-0.139ZM0.054,-0.263C0.055,-0.271 0.056,-0.278 0.056,-0.283C0.056,-0.295 0.054,-0.304 0.05,-0.31C0.046,-0.317 0.042,-0.32 0.036,-0.32C0.032,-0.32 0.03,-0.318 0.027,-0.315C0.025,-0.312 0.023,-0.308 0.023,-0.304C0.023,-0.288 0.034,-0.275 0.054,-0.263Z" style="fill:rgb(255,227,149);fill-opacity:0.41;fill-rule:nonzero;"/>
                </g>
                <g transform="matrix(149.712,0,0,149.712,475.335,759.962)">
                    <path d="M0.147,-0.16L0.143,-0.138L0.023,-0.138L0.028,-0.16L0.147,-0.16Z" style="fill:rgb(255,227,149);fill-opacity:0.41;fill-rule:nonzero;"/>
                </g>
                <g transform="matrix(149.712,0,0,149.712,279.752,819.896)">
                    <path d="M-0.04,-0.031L-0.013,-0.063C0.002,-0.03 0.024,-0.013 0.056,-0.013C0.072,-0.013 0.086,-0.018 0.097,-0.029C0.109,-0.039 0.115,-0.051 0.115,-0.065C0.115,-0.076 0.112,-0.084 0.106,-0.091C0.101,-0.098 0.088,-0.111 0.067,-0.127C0.048,-0.143 0.035,-0.155 0.028,-0.164C0.021,-0.173 0.018,-0.184 0.018,-0.195C0.018,-0.211 0.023,-0.225 0.031,-0.238C0.04,-0.251 0.052,-0.261 0.067,-0.269C0.082,-0.277 0.098,-0.281 0.115,-0.281C0.129,-0.281 0.142,-0.278 0.152,-0.27C0.162,-0.263 0.167,-0.254 0.167,-0.242C0.167,-0.227 0.16,-0.217 0.147,-0.211C0.146,-0.227 0.14,-0.239 0.13,-0.247C0.121,-0.256 0.108,-0.26 0.093,-0.26C0.08,-0.26 0.068,-0.256 0.058,-0.247C0.048,-0.239 0.043,-0.229 0.043,-0.218C0.043,-0.204 0.052,-0.191 0.069,-0.177L0.097,-0.154C0.125,-0.132 0.139,-0.11 0.139,-0.087C0.139,-0.07 0.134,-0.055 0.124,-0.04C0.115,-0.025 0.102,-0.013 0.085,-0.004C0.069,0.004 0.051,0.009 0.033,0.009C0.004,0.009 -0.02,-0.005 -0.04,-0.031Z" style="fill:rgb(255,227,149);fill-opacity:0.41;fill-rule:nonzero;"/>
                </g>
                <g transform="matrix(149.712,0,0,149.712,311.624,819.896)">
                    <path d="M0.086,-0.286L0.039,-0.097C0.034,-0.08 0.032,-0.065 0.032,-0.054C0.032,-0.042 0.036,-0.033 0.043,-0.026C0.05,-0.02 0.059,-0.016 0.071,-0.016C0.098,-0.016 0.127,-0.039 0.157,-0.084L0.159,-0.087C0.16,-0.09 0.16,-0.093 0.161,-0.095L0.191,-0.266L0.239,-0.286L0.196,-0.125C0.189,-0.099 0.186,-0.077 0.186,-0.062C0.186,-0.051 0.187,-0.043 0.191,-0.036C0.194,-0.03 0.199,-0.026 0.205,-0.026C0.215,-0.026 0.231,-0.038 0.253,-0.063L0.261,-0.056L0.256,-0.05C0.238,-0.028 0.224,-0.014 0.215,-0.006C0.207,0.002 0.198,0.005 0.191,0.005C0.181,0.005 0.172,0 0.165,-0.01C0.158,-0.02 0.155,-0.033 0.155,-0.048C0.155,-0.053 0.155,-0.058 0.155,-0.062C0.121,-0.017 0.088,0.005 0.055,0.005C0.038,0.005 0.025,0.001 0.015,-0.009C0.005,-0.019 0,-0.031 0,-0.047C0,-0.06 0.002,-0.075 0.005,-0.093L0.039,-0.266L0.086,-0.286Z" style="fill:rgb(255,227,149);fill-opacity:0.41;fill-rule:nonzero;"/>
                </g>
                <g transform="matrix(149.712,0,0,149.712,356.728,819.896)">
                    <path d="M-0.047,0.194L0.045,-0.266L0.092,-0.286L0.06,-0.146C0.084,-0.194 0.107,-0.229 0.128,-0.25C0.149,-0.272 0.173,-0.282 0.198,-0.282C0.218,-0.282 0.233,-0.275 0.245,-0.261C0.256,-0.246 0.262,-0.227 0.262,-0.202C0.262,-0.176 0.257,-0.15 0.246,-0.124C0.236,-0.097 0.222,-0.073 0.203,-0.051C0.17,-0.01 0.133,0.01 0.092,0.01C0.067,0.01 0.046,0.003 0.03,-0.01L-0.021,0.194L-0.047,0.194ZM0.037,-0.042C0.051,-0.016 0.07,-0.002 0.095,-0.002C0.131,-0.002 0.162,-0.032 0.188,-0.09C0.21,-0.137 0.221,-0.176 0.221,-0.208C0.221,-0.225 0.218,-0.239 0.211,-0.248C0.205,-0.257 0.196,-0.262 0.184,-0.262C0.164,-0.262 0.144,-0.249 0.122,-0.224C0.102,-0.198 0.084,-0.17 0.07,-0.139C0.064,-0.126 0.059,-0.113 0.054,-0.099C0.05,-0.085 0.045,-0.071 0.041,-0.056L0.037,-0.042Z" style="fill:rgb(255,227,149);fill-opacity:0.41;fill-rule:nonzero;"/>
                </g>
                <g transform="matrix(149.712,0,0,149.712,403.951,819.896)">
                    <path d="M-0.047,0.194L0.045,-0.266L0.092,-0.286L0.06,-0.146C0.084,-0.194 0.107,-0.229 0.128,-0.25C0.149,-0.272 0.173,-0.282 0.198,-0.282C0.218,-0.282 0.233,-0.275 0.245,-0.261C0.256,-0.246 0.262,-0.227 0.262,-0.202C0.262,-0.176 0.257,-0.15 0.246,-0.124C0.236,-0.097 0.222,-0.073 0.203,-0.051C0.17,-0.01 0.133,0.01 0.092,0.01C0.067,0.01 0.046,0.003 0.03,-0.01L-0.021,0.194L-0.047,0.194ZM0.037,-0.042C0.051,-0.016 0.07,-0.002 0.095,-0.002C0.131,-0.002 0.162,-0.032 0.188,-0.09C0.21,-0.137 0.221,-0.176 0.221,-0.208C0.221,-0.225 0.218,-0.239 0.211,-0.248C0.205,-0.257 0.196,-0.262 0.184,-0.262C0.164,-0.262 0.144,-0.249 0.122,-0.224C0.102,-0.198 0.084,-0.17 0.07,-0.139C0.064,-0.126 0.059,-0.113 0.054,-0.099C0.05,-0.085 0.045,-0.071 0.041,-0.056L0.037,-0.042Z" style="fill:rgb(255,227,149);fill-opacity:0.41;fill-rule:nonzero;"/>
                </g>
                <g transform="matrix(149.712,0,0,149.712,451.175,819.896)">
                    <path d="M-0.013,-0.094C-0.013,-0.123 -0.005,-0.152 0.01,-0.181C0.026,-0.211 0.047,-0.234 0.072,-0.252C0.097,-0.271 0.122,-0.28 0.148,-0.28C0.176,-0.28 0.198,-0.271 0.215,-0.253C0.231,-0.235 0.24,-0.211 0.24,-0.183C0.24,-0.151 0.232,-0.121 0.217,-0.092C0.201,-0.063 0.181,-0.038 0.156,-0.02C0.13,-0.001 0.105,0.008 0.079,0.008C0.051,0.008 0.029,-0.001 0.012,-0.02C-0.005,-0.038 -0.013,-0.063 -0.013,-0.094ZM0.196,-0.201C0.196,-0.221 0.191,-0.237 0.181,-0.25C0.172,-0.262 0.16,-0.269 0.145,-0.269C0.131,-0.269 0.118,-0.264 0.105,-0.255C0.093,-0.247 0.081,-0.234 0.071,-0.217C0.059,-0.197 0.049,-0.174 0.042,-0.148C0.034,-0.122 0.03,-0.099 0.03,-0.079C0.03,-0.055 0.035,-0.036 0.044,-0.023C0.054,-0.01 0.067,-0.004 0.085,-0.004C0.113,-0.004 0.138,-0.024 0.16,-0.063C0.171,-0.083 0.18,-0.106 0.186,-0.131C0.193,-0.156 0.196,-0.179 0.196,-0.201Z" style="fill:rgb(255,227,149);fill-opacity:0.41;fill-rule:nonzero;"/>
                </g>
                <g transform="matrix(149.712,0,0,149.712,495.036,819.896)">
                    <path d="M-0.013,-0.139C0.015,-0.173 0.034,-0.204 0.043,-0.233C0.017,-0.248 0.003,-0.269 0.003,-0.296C0.003,-0.309 0.007,-0.32 0.013,-0.328C0.019,-0.336 0.027,-0.34 0.036,-0.34C0.046,-0.34 0.054,-0.336 0.06,-0.327C0.066,-0.318 0.069,-0.306 0.069,-0.292C0.069,-0.282 0.068,-0.271 0.064,-0.258C0.073,-0.256 0.081,-0.255 0.088,-0.255C0.108,-0.255 0.125,-0.261 0.138,-0.272L0.161,-0.272L0.158,-0.266C0.134,-0.223 0.115,-0.18 0.1,-0.139C0.085,-0.097 0.077,-0.066 0.077,-0.046C0.077,-0.038 0.079,-0.032 0.083,-0.027C0.087,-0.022 0.092,-0.02 0.097,-0.02C0.111,-0.02 0.132,-0.034 0.162,-0.062L0.169,-0.053C0.16,-0.043 0.146,-0.031 0.127,-0.016C0.11,-0.002 0.094,0.005 0.079,0.005C0.066,0.005 0.056,0.001 0.049,-0.008C0.041,-0.016 0.038,-0.028 0.038,-0.042C0.038,-0.067 0.047,-0.098 0.066,-0.135C0.073,-0.149 0.082,-0.165 0.092,-0.183C0.103,-0.201 0.117,-0.222 0.133,-0.247L0.138,-0.254C0.127,-0.244 0.117,-0.237 0.107,-0.233C0.097,-0.229 0.085,-0.227 0.073,-0.227C0.067,-0.227 0.061,-0.228 0.054,-0.229C0.044,-0.198 0.024,-0.165 -0.004,-0.131L-0.013,-0.139ZM0.054,-0.263C0.055,-0.271 0.056,-0.278 0.056,-0.283C0.056,-0.295 0.054,-0.304 0.05,-0.31C0.046,-0.317 0.042,-0.32 0.036,-0.32C0.032,-0.32 0.03,-0.318 0.027,-0.315C0.025,-0.312 0.023,-0.308 0.023,-0.304C0.023,-0.288 0.034,-0.275 0.054,-0.263Z" style="fill:rgb(255,227,149);fill-opacity:0.41;fill-rule:nonzero;"/>
                </g>
                <g transform="matrix(149.712,0,0,149.712,527.42,819.896)">
                    <path d="M0.08,-0.261L0.043,-0.098C0.039,-0.08 0.037,-0.068 0.037,-0.06C0.037,-0.048 0.04,-0.039 0.045,-0.032C0.051,-0.025 0.058,-0.021 0.067,-0.021C0.076,-0.021 0.084,-0.024 0.092,-0.029C0.099,-0.034 0.11,-0.044 0.125,-0.06L0.131,-0.066L0.138,-0.059C0.119,-0.035 0.103,-0.019 0.09,-0.009C0.077,0.001 0.065,0.005 0.052,0.005C0.037,0.005 0.024,0 0.015,-0.01C0.006,-0.02 0.001,-0.034 0.001,-0.05C0.001,-0.063 0.003,-0.081 0.008,-0.104L0.04,-0.261L-0.007,-0.261L-0.003,-0.277L0.043,-0.277L0.071,-0.409L0.118,-0.428L0.083,-0.277L0.163,-0.277L0.159,-0.261L0.08,-0.261Z" style="fill:rgb(255,227,149);fill-opacity:0.41;fill-rule:nonzero;"/>
                </g>
            </g>
        </g>
    </g>
</svg>
