<?xml version="1.0" encoding="UTF-8" standalone="no"?>
<!DOCTYPE svg PUBLIC "-//W3C//DTD SVG 1.1//EN" "http://www.w3.org/Graphics/SVG/1.1/DTD/svg11.dtd">
<svg width="100%" height="100%" viewBox="0 0 1598 804" version="1.1" xmlns="http://www.w3.org/2000/svg" xmlns:xlink="http://www.w3.org/1999/xlink" xml:space="preserve" xmlns:serif="http://www.serif.com/" style="fill-rule:evenodd;clip-rule:evenodd;stroke-linejoin:round;stroke-miterlimit:2;">
    <g transform="matrix(1,0,0,1,-35.4655,-174.636)">
        <g transform="matrix(1.23038,0,0,1.23038,-194.867,-114.039)">
            <g transform="matrix(0.662713,0,0,0.662713,358.515,97.287)">
                <g transform="matrix(301.546,0,0,301.546,458.71,504)">
                    <path d="M0.711,-0.525C0.711,-0.519 0.705,-0.516 0.693,-0.516C0.687,-0.516 0.684,-0.518 0.683,-0.523C0.668,-0.57 0.648,-0.603 0.621,-0.622C0.594,-0.642 0.555,-0.652 0.503,-0.652L0.456,-0.652C0.439,-0.652 0.428,-0.649 0.422,-0.644C0.416,-0.638 0.413,-0.628 0.413,-0.614L0.413,-0.106C0.413,-0.083 0.416,-0.067 0.422,-0.057C0.428,-0.048 0.438,-0.04 0.453,-0.035C0.468,-0.029 0.489,-0.025 0.517,-0.022C0.522,-0.021 0.525,-0.016 0.525,-0.008C0.525,0.001 0.522,0.006 0.517,0.006C0.494,0.006 0.467,0.005 0.437,0.003C0.407,0.001 0.383,-0 0.363,-0C0.343,-0 0.318,0.001 0.288,0.003C0.257,0.005 0.23,0.006 0.208,0.006C0.203,0.006 0.2,0.001 0.2,-0.008C0.2,-0.016 0.203,-0.021 0.208,-0.022C0.248,-0.026 0.276,-0.034 0.29,-0.044C0.305,-0.054 0.312,-0.075 0.312,-0.106L0.312,-0.614C0.312,-0.628 0.309,-0.638 0.303,-0.644C0.297,-0.649 0.286,-0.652 0.269,-0.652L0.23,-0.652C0.183,-0.652 0.14,-0.64 0.102,-0.616C0.064,-0.592 0.039,-0.561 0.027,-0.523C0.025,-0.518 0.022,-0.516 0.016,-0.516C0.005,-0.516 -0.001,-0.519 -0.001,-0.527C0.018,-0.577 0.035,-0.634 0.052,-0.698C0.097,-0.688 0.201,-0.684 0.363,-0.684C0.529,-0.684 0.635,-0.688 0.681,-0.698C0.685,-0.654 0.695,-0.597 0.711,-0.525Z" style="fill:rgb(0,27,51);fill-rule:nonzero;"/>
                </g>
                <g transform="matrix(301.546,0,0,301.546,673.11,504)">
                    <path d="M0.55,-0.008C0.55,0.001 0.547,0.006 0.542,0.006C0.528,0.006 0.512,0.005 0.492,0.003C0.471,0.001 0.452,-0 0.436,-0C0.419,-0 0.4,0.001 0.379,0.003C0.359,0.005 0.342,0.006 0.329,0.006C0.324,0.006 0.321,0.001 0.321,-0.008C0.321,-0.016 0.324,-0.021 0.329,-0.022C0.352,-0.024 0.367,-0.031 0.374,-0.041C0.381,-0.051 0.385,-0.073 0.385,-0.106L0.385,-0.273C0.385,-0.345 0.352,-0.381 0.287,-0.381C0.246,-0.381 0.21,-0.364 0.18,-0.331L0.18,-0.106C0.18,-0.076 0.184,-0.055 0.193,-0.044C0.202,-0.032 0.219,-0.025 0.244,-0.022C0.249,-0.021 0.252,-0.016 0.252,-0.008C0.252,0.001 0.249,0.006 0.244,0.006C0.23,0.006 0.213,0.005 0.191,0.003C0.166,0.001 0.145,-0 0.129,-0C0.112,-0 0.093,0.001 0.072,0.003C0.053,0.005 0.037,0.006 0.023,0.006C0.018,0.006 0.015,0.001 0.015,-0.008C0.015,-0.016 0.018,-0.021 0.023,-0.022C0.051,-0.025 0.069,-0.031 0.078,-0.041C0.086,-0.051 0.09,-0.073 0.09,-0.106L0.09,-0.571C0.09,-0.598 0.087,-0.615 0.08,-0.624C0.074,-0.632 0.059,-0.637 0.035,-0.64C0.03,-0.641 0.027,-0.645 0.027,-0.653C0.027,-0.661 0.03,-0.666 0.035,-0.666C0.092,-0.679 0.134,-0.697 0.162,-0.719C0.167,-0.723 0.171,-0.725 0.174,-0.725C0.183,-0.725 0.188,-0.722 0.188,-0.717C0.183,-0.662 0.18,-0.604 0.18,-0.543L0.18,-0.373C0.228,-0.418 0.275,-0.441 0.321,-0.441C0.368,-0.441 0.406,-0.428 0.433,-0.402C0.46,-0.376 0.474,-0.341 0.474,-0.297L0.474,-0.106C0.474,-0.073 0.478,-0.052 0.486,-0.042C0.495,-0.032 0.513,-0.025 0.542,-0.022C0.547,-0.021 0.55,-0.016 0.55,-0.008Z" style="fill:rgb(0,27,51);fill-rule:nonzero;"/>
                </g>
                <g transform="matrix(301.546,0,0,301.546,840.166,504)">
                    <path d="M0.431,-0.278C0.431,-0.269 0.425,-0.264 0.413,-0.264L0.139,-0.264C0.137,-0.246 0.136,-0.227 0.136,-0.208C0.136,-0.154 0.149,-0.113 0.174,-0.084C0.2,-0.055 0.236,-0.041 0.283,-0.041C0.307,-0.041 0.331,-0.047 0.355,-0.06C0.379,-0.073 0.398,-0.089 0.413,-0.109L0.415,-0.11C0.418,-0.11 0.421,-0.108 0.424,-0.104C0.427,-0.1 0.428,-0.096 0.428,-0.091C0.428,-0.084 0.417,-0.069 0.396,-0.047C0.375,-0.025 0.352,-0.008 0.327,0.004C0.302,0.015 0.275,0.021 0.248,0.021C0.188,0.021 0.137,-0.001 0.097,-0.045C0.056,-0.089 0.035,-0.143 0.035,-0.207C0.035,-0.272 0.055,-0.328 0.095,-0.373C0.135,-0.418 0.186,-0.441 0.248,-0.441C0.3,-0.441 0.343,-0.424 0.378,-0.39C0.413,-0.356 0.431,-0.319 0.431,-0.278ZM0.34,-0.322C0.34,-0.347 0.331,-0.368 0.314,-0.384C0.297,-0.401 0.275,-0.409 0.248,-0.409C0.222,-0.409 0.2,-0.398 0.181,-0.377C0.162,-0.355 0.15,-0.327 0.143,-0.292L0.282,-0.296C0.303,-0.296 0.318,-0.298 0.327,-0.302C0.336,-0.306 0.34,-0.312 0.34,-0.322Z" style="fill:rgb(0,27,51);fill-rule:nonzero;"/>
                </g>
                <g transform="matrix(301.546,0,0,301.546,257.127,805.546)">
                    <path d="M0.35,-0.123C0.35,-0.082 0.334,-0.048 0.302,-0.021C0.27,0.007 0.231,0.021 0.186,0.021C0.17,0.021 0.145,0.018 0.112,0.011C0.087,0.006 0.07,0.003 0.061,0.003C0.058,-0.02 0.052,-0.056 0.043,-0.104C0.043,-0.109 0.047,-0.111 0.057,-0.111C0.065,-0.111 0.07,-0.108 0.072,-0.103C0.079,-0.078 0.094,-0.057 0.117,-0.039C0.14,-0.02 0.163,-0.011 0.187,-0.011C0.212,-0.011 0.231,-0.018 0.245,-0.032C0.259,-0.045 0.266,-0.064 0.266,-0.089C0.266,-0.105 0.26,-0.119 0.249,-0.131C0.237,-0.142 0.212,-0.157 0.174,-0.175C0.124,-0.198 0.09,-0.22 0.074,-0.24C0.058,-0.26 0.05,-0.285 0.05,-0.313C0.05,-0.348 0.065,-0.378 0.096,-0.403C0.126,-0.428 0.162,-0.441 0.203,-0.441C0.22,-0.441 0.245,-0.438 0.276,-0.432C0.293,-0.429 0.305,-0.427 0.31,-0.427C0.311,-0.388 0.313,-0.354 0.317,-0.327C0.317,-0.322 0.312,-0.319 0.302,-0.319C0.294,-0.319 0.289,-0.322 0.288,-0.327C0.284,-0.351 0.275,-0.371 0.261,-0.386C0.246,-0.401 0.228,-0.409 0.208,-0.409C0.156,-0.409 0.13,-0.386 0.13,-0.341C0.13,-0.326 0.136,-0.312 0.149,-0.299C0.161,-0.286 0.188,-0.269 0.229,-0.248C0.278,-0.223 0.311,-0.202 0.327,-0.184C0.342,-0.166 0.35,-0.146 0.35,-0.123Z" style="fill:rgb(0,27,51);fill-rule:nonzero;"/>
                </g>
                <g transform="matrix(301.546,0,0,301.546,372.317,805.546)">
                    <path d="M0.421,-0.362C0.421,-0.335 0.407,-0.321 0.38,-0.321C0.368,-0.321 0.359,-0.324 0.351,-0.329C0.344,-0.334 0.336,-0.344 0.329,-0.361C0.32,-0.381 0.31,-0.394 0.3,-0.4C0.29,-0.406 0.276,-0.409 0.26,-0.409C0.22,-0.409 0.189,-0.392 0.168,-0.359C0.147,-0.325 0.136,-0.276 0.136,-0.212C0.136,-0.158 0.149,-0.115 0.176,-0.082C0.203,-0.049 0.238,-0.033 0.283,-0.033C0.334,-0.033 0.374,-0.049 0.404,-0.081L0.406,-0.082C0.409,-0.082 0.412,-0.08 0.415,-0.076C0.418,-0.072 0.419,-0.068 0.419,-0.063C0.419,-0.056 0.409,-0.045 0.39,-0.029C0.37,-0.012 0.349,0 0.326,0.009C0.303,0.017 0.278,0.021 0.252,0.021C0.192,0.021 0.141,-0.001 0.099,-0.045C0.056,-0.089 0.035,-0.144 0.035,-0.211C0.035,-0.277 0.057,-0.332 0.102,-0.376C0.146,-0.419 0.199,-0.441 0.26,-0.441C0.305,-0.441 0.343,-0.433 0.374,-0.418C0.405,-0.402 0.421,-0.384 0.421,-0.362Z" style="fill:rgb(0,27,51);fill-rule:nonzero;"/>
                </g>
                <g transform="matrix(301.546,0,0,301.546,511.632,805.546)">
                    <path d="M0.196,-0.613C0.196,-0.599 0.191,-0.586 0.181,-0.576C0.171,-0.566 0.158,-0.561 0.144,-0.561C0.13,-0.561 0.117,-0.566 0.107,-0.576C0.097,-0.586 0.092,-0.599 0.092,-0.613C0.092,-0.627 0.097,-0.64 0.107,-0.65C0.117,-0.66 0.129,-0.665 0.144,-0.665C0.158,-0.665 0.171,-0.66 0.181,-0.65C0.191,-0.64 0.196,-0.627 0.196,-0.613ZM0.266,-0.008C0.266,0.001 0.263,0.006 0.258,0.006C0.244,0.006 0.227,0.005 0.206,0.003C0.182,0.001 0.161,-0 0.145,-0C0.128,-0 0.108,0.001 0.085,0.003C0.064,0.005 0.047,0.006 0.033,0.006C0.028,0.006 0.025,0.001 0.025,-0.008C0.025,-0.016 0.028,-0.021 0.033,-0.022C0.061,-0.025 0.08,-0.032 0.088,-0.042C0.096,-0.052 0.1,-0.073 0.1,-0.106L0.1,-0.291C0.1,-0.318 0.097,-0.335 0.09,-0.344C0.083,-0.352 0.068,-0.357 0.045,-0.36C0.04,-0.36 0.037,-0.364 0.037,-0.373C0.037,-0.381 0.04,-0.385 0.045,-0.385C0.08,-0.394 0.109,-0.404 0.131,-0.414C0.153,-0.424 0.167,-0.432 0.173,-0.439C0.176,-0.443 0.18,-0.445 0.184,-0.445C0.193,-0.445 0.198,-0.442 0.198,-0.437C0.193,-0.362 0.19,-0.304 0.19,-0.263L0.19,-0.106C0.19,-0.073 0.194,-0.052 0.202,-0.042C0.21,-0.032 0.229,-0.025 0.258,-0.022C0.263,-0.021 0.266,-0.016 0.266,-0.008Z" style="fill:rgb(0,27,51);fill-rule:nonzero;"/>
                </g>
                <g transform="matrix(301.546,0,0,301.546,596.065,805.546)">
                    <path d="M0.431,-0.278C0.431,-0.269 0.425,-0.264 0.413,-0.264L0.139,-0.264C0.137,-0.246 0.136,-0.227 0.136,-0.208C0.136,-0.154 0.149,-0.113 0.174,-0.084C0.2,-0.055 0.236,-0.041 0.283,-0.041C0.307,-0.041 0.331,-0.047 0.355,-0.06C0.379,-0.073 0.398,-0.089 0.413,-0.109L0.415,-0.11C0.418,-0.11 0.421,-0.108 0.424,-0.104C0.427,-0.1 0.428,-0.096 0.428,-0.091C0.428,-0.084 0.417,-0.069 0.396,-0.047C0.375,-0.025 0.352,-0.008 0.327,0.004C0.302,0.015 0.275,0.021 0.248,0.021C0.188,0.021 0.137,-0.001 0.097,-0.045C0.056,-0.089 0.035,-0.143 0.035,-0.207C0.035,-0.272 0.055,-0.328 0.095,-0.373C0.135,-0.418 0.186,-0.441 0.248,-0.441C0.3,-0.441 0.343,-0.424 0.378,-0.39C0.413,-0.356 0.431,-0.319 0.431,-0.278ZM0.34,-0.322C0.34,-0.347 0.331,-0.368 0.314,-0.384C0.297,-0.401 0.275,-0.409 0.248,-0.409C0.222,-0.409 0.2,-0.398 0.181,-0.377C0.162,-0.355 0.15,-0.327 0.143,-0.292L0.282,-0.296C0.303,-0.296 0.318,-0.298 0.327,-0.302C0.336,-0.306 0.34,-0.312 0.34,-0.322Z" style="fill:rgb(0,27,51);fill-rule:nonzero;"/>
                </g>
                <g transform="matrix(301.546,0,0,301.546,737.188,805.546)">
                    <path d="M0.543,-0.008C0.543,0.001 0.54,0.006 0.535,0.006C0.521,0.006 0.505,0.005 0.486,0.003C0.464,0.001 0.445,-0 0.429,-0C0.412,-0 0.393,0.001 0.372,0.003C0.352,0.005 0.335,0.006 0.322,0.006C0.317,0.006 0.314,0.001 0.314,-0.008C0.314,-0.016 0.317,-0.021 0.322,-0.022C0.345,-0.024 0.36,-0.031 0.367,-0.041C0.374,-0.051 0.378,-0.073 0.378,-0.106L0.378,-0.273C0.378,-0.31 0.371,-0.338 0.356,-0.355C0.341,-0.372 0.319,-0.381 0.288,-0.381C0.269,-0.381 0.252,-0.377 0.237,-0.37C0.222,-0.363 0.206,-0.35 0.189,-0.331L0.189,-0.106C0.189,-0.073 0.193,-0.051 0.2,-0.041C0.207,-0.031 0.222,-0.024 0.245,-0.022C0.25,-0.021 0.253,-0.016 0.253,-0.008C0.253,0.001 0.25,0.006 0.245,0.006C0.231,0.006 0.215,0.005 0.195,0.003C0.173,0.001 0.154,-0 0.138,-0C0.122,-0 0.103,0.001 0.082,0.003C0.062,0.005 0.046,0.006 0.032,0.006C0.027,0.006 0.024,0.001 0.024,-0.008C0.024,-0.016 0.027,-0.021 0.032,-0.022C0.061,-0.025 0.079,-0.032 0.088,-0.042C0.096,-0.052 0.1,-0.074 0.1,-0.106L0.1,-0.291C0.1,-0.318 0.097,-0.335 0.09,-0.344C0.083,-0.352 0.068,-0.357 0.044,-0.36C0.039,-0.36 0.036,-0.364 0.036,-0.373C0.036,-0.381 0.039,-0.385 0.044,-0.385C0.077,-0.393 0.105,-0.403 0.127,-0.413C0.149,-0.424 0.162,-0.432 0.168,-0.439C0.171,-0.443 0.175,-0.445 0.179,-0.445C0.188,-0.445 0.193,-0.442 0.193,-0.437L0.189,-0.374C0.237,-0.419 0.282,-0.441 0.323,-0.441C0.368,-0.441 0.404,-0.428 0.429,-0.402C0.455,-0.376 0.468,-0.341 0.468,-0.297L0.468,-0.106C0.468,-0.073 0.472,-0.052 0.48,-0.042C0.488,-0.032 0.506,-0.025 0.535,-0.022C0.54,-0.021 0.543,-0.016 0.543,-0.008Z" style="fill:rgb(0,27,51);fill-rule:nonzero;"/>
                </g>
                <g transform="matrix(301.546,0,0,301.546,902.435,805.546)">
                    <path d="M0.421,-0.362C0.421,-0.335 0.407,-0.321 0.38,-0.321C0.368,-0.321 0.359,-0.324 0.351,-0.329C0.344,-0.334 0.336,-0.344 0.329,-0.361C0.32,-0.381 0.31,-0.394 0.3,-0.4C0.29,-0.406 0.276,-0.409 0.26,-0.409C0.22,-0.409 0.189,-0.392 0.168,-0.359C0.147,-0.325 0.136,-0.276 0.136,-0.212C0.136,-0.158 0.149,-0.115 0.176,-0.082C0.203,-0.049 0.238,-0.033 0.283,-0.033C0.334,-0.033 0.374,-0.049 0.404,-0.081L0.406,-0.082C0.409,-0.082 0.412,-0.08 0.415,-0.076C0.418,-0.072 0.419,-0.068 0.419,-0.063C0.419,-0.056 0.409,-0.045 0.39,-0.029C0.37,-0.012 0.349,0 0.326,0.009C0.303,0.017 0.278,0.021 0.252,0.021C0.192,0.021 0.141,-0.001 0.099,-0.045C0.056,-0.089 0.035,-0.144 0.035,-0.211C0.035,-0.277 0.057,-0.332 0.102,-0.376C0.146,-0.419 0.199,-0.441 0.26,-0.441C0.305,-0.441 0.343,-0.433 0.374,-0.418C0.405,-0.402 0.421,-0.384 0.421,-0.362Z" style="fill:rgb(0,27,51);fill-rule:nonzero;"/>
                </g>
                <g transform="matrix(301.546,0,0,301.546,1041.75,805.546)">
                    <path d="M0.431,-0.278C0.431,-0.269 0.425,-0.264 0.413,-0.264L0.139,-0.264C0.137,-0.246 0.136,-0.227 0.136,-0.208C0.136,-0.154 0.149,-0.113 0.174,-0.084C0.2,-0.055 0.236,-0.041 0.283,-0.041C0.307,-0.041 0.331,-0.047 0.355,-0.06C0.379,-0.073 0.398,-0.089 0.413,-0.109L0.415,-0.11C0.418,-0.11 0.421,-0.108 0.424,-0.104C0.427,-0.1 0.428,-0.096 0.428,-0.091C0.428,-0.084 0.417,-0.069 0.396,-0.047C0.375,-0.025 0.352,-0.008 0.327,0.004C0.302,0.015 0.275,0.021 0.248,0.021C0.188,0.021 0.137,-0.001 0.097,-0.045C0.056,-0.089 0.035,-0.143 0.035,-0.207C0.035,-0.272 0.055,-0.328 0.095,-0.373C0.135,-0.418 0.186,-0.441 0.248,-0.441C0.3,-0.441 0.343,-0.424 0.378,-0.39C0.413,-0.356 0.431,-0.319 0.431,-0.278ZM0.34,-0.322C0.34,-0.347 0.331,-0.368 0.314,-0.384C0.297,-0.401 0.275,-0.409 0.248,-0.409C0.222,-0.409 0.2,-0.398 0.181,-0.377C0.162,-0.355 0.15,-0.327 0.143,-0.292L0.282,-0.296C0.303,-0.296 0.318,-0.298 0.327,-0.302C0.336,-0.306 0.34,-0.312 0.34,-0.322Z" style="fill:rgb(0,27,51);fill-rule:nonzero;"/>
                </g>
                <g transform="matrix(301.546,0,0,301.546,276.727,1107.09)">
                    <path d="M0.508,-0.212C0.508,-0.151 0.486,-0.096 0.443,-0.05C0.399,-0.003 0.349,0.021 0.292,0.021C0.26,0.021 0.23,0.014 0.2,0.001C0.18,-0.008 0.162,-0.013 0.146,-0.013C0.121,-0.013 0.105,-0.002 0.097,0.019C0.095,0.023 0.091,0.025 0.084,0.025C0.075,0.025 0.071,0.022 0.071,0.017C0.074,-0.011 0.075,-0.045 0.075,-0.084L0.075,-0.572C0.075,-0.599 0.072,-0.616 0.065,-0.625C0.058,-0.633 0.043,-0.638 0.02,-0.641C0.015,-0.641 0.012,-0.645 0.012,-0.653C0.012,-0.662 0.015,-0.667 0.02,-0.667C0.079,-0.682 0.122,-0.7 0.147,-0.72C0.152,-0.724 0.156,-0.725 0.159,-0.726C0.168,-0.725 0.173,-0.723 0.173,-0.718C0.168,-0.645 0.165,-0.587 0.165,-0.543L0.165,-0.393C0.196,-0.424 0.235,-0.44 0.28,-0.44C0.348,-0.44 0.403,-0.42 0.445,-0.379C0.487,-0.337 0.508,-0.282 0.508,-0.212ZM0.407,-0.208C0.407,-0.269 0.395,-0.317 0.371,-0.352C0.346,-0.387 0.312,-0.404 0.268,-0.404C0.244,-0.404 0.221,-0.395 0.199,-0.377C0.176,-0.359 0.165,-0.342 0.165,-0.324L0.165,-0.093C0.165,-0.075 0.178,-0.057 0.205,-0.039C0.232,-0.021 0.257,-0.012 0.28,-0.012C0.32,-0.012 0.351,-0.03 0.374,-0.066C0.396,-0.101 0.407,-0.149 0.407,-0.208Z" style="fill:rgb(0,27,51);fill-rule:nonzero;"/>
                </g>
                <g transform="matrix(301.546,0,0,301.546,441.975,1107.09)">
                    <path d="M0.431,-0.278C0.431,-0.269 0.425,-0.264 0.413,-0.264L0.139,-0.264C0.137,-0.246 0.136,-0.227 0.136,-0.208C0.136,-0.154 0.149,-0.113 0.174,-0.084C0.2,-0.055 0.236,-0.041 0.283,-0.041C0.307,-0.041 0.331,-0.047 0.355,-0.06C0.379,-0.073 0.398,-0.089 0.413,-0.109L0.415,-0.11C0.418,-0.11 0.421,-0.108 0.424,-0.104C0.427,-0.1 0.428,-0.096 0.428,-0.091C0.428,-0.084 0.417,-0.069 0.396,-0.047C0.375,-0.025 0.352,-0.008 0.327,0.004C0.302,0.015 0.275,0.021 0.248,0.021C0.188,0.021 0.137,-0.001 0.097,-0.045C0.056,-0.089 0.035,-0.143 0.035,-0.207C0.035,-0.272 0.055,-0.328 0.095,-0.373C0.135,-0.418 0.186,-0.441 0.248,-0.441C0.3,-0.441 0.343,-0.424 0.378,-0.39C0.413,-0.356 0.431,-0.319 0.431,-0.278ZM0.34,-0.322C0.34,-0.347 0.331,-0.368 0.314,-0.384C0.297,-0.401 0.275,-0.409 0.248,-0.409C0.222,-0.409 0.2,-0.398 0.181,-0.377C0.162,-0.355 0.15,-0.327 0.143,-0.292L0.282,-0.296C0.303,-0.296 0.318,-0.298 0.327,-0.302C0.336,-0.306 0.34,-0.312 0.34,-0.322Z" style="fill:rgb(0,27,51);fill-rule:nonzero;"/>
                </g>
                <g transform="matrix(301.546,0,0,301.546,583.098,1107.09)">
                    <path d="M0.55,-0.008C0.55,0.001 0.547,0.006 0.542,0.006C0.528,0.006 0.512,0.005 0.492,0.003C0.471,0.001 0.452,-0 0.436,-0C0.419,-0 0.4,0.001 0.379,0.003C0.359,0.005 0.342,0.006 0.329,0.006C0.324,0.006 0.321,0.001 0.321,-0.008C0.321,-0.016 0.324,-0.021 0.329,-0.022C0.352,-0.024 0.367,-0.031 0.374,-0.041C0.381,-0.051 0.385,-0.073 0.385,-0.106L0.385,-0.273C0.385,-0.345 0.352,-0.381 0.287,-0.381C0.246,-0.381 0.21,-0.364 0.18,-0.331L0.18,-0.106C0.18,-0.076 0.184,-0.055 0.193,-0.044C0.202,-0.032 0.219,-0.025 0.244,-0.022C0.249,-0.021 0.252,-0.016 0.252,-0.008C0.252,0.001 0.249,0.006 0.244,0.006C0.23,0.006 0.213,0.005 0.191,0.003C0.166,0.001 0.145,-0 0.129,-0C0.112,-0 0.093,0.001 0.072,0.003C0.053,0.005 0.037,0.006 0.023,0.006C0.018,0.006 0.015,0.001 0.015,-0.008C0.015,-0.016 0.018,-0.021 0.023,-0.022C0.051,-0.025 0.069,-0.031 0.078,-0.041C0.086,-0.051 0.09,-0.073 0.09,-0.106L0.09,-0.571C0.09,-0.598 0.087,-0.615 0.08,-0.624C0.074,-0.632 0.059,-0.637 0.035,-0.64C0.03,-0.641 0.027,-0.645 0.027,-0.653C0.027,-0.661 0.03,-0.666 0.035,-0.666C0.092,-0.679 0.134,-0.697 0.162,-0.719C0.167,-0.723 0.171,-0.725 0.174,-0.725C0.183,-0.725 0.188,-0.722 0.188,-0.717C0.183,-0.662 0.18,-0.604 0.18,-0.543L0.18,-0.373C0.228,-0.418 0.275,-0.441 0.321,-0.441C0.368,-0.441 0.406,-0.428 0.433,-0.402C0.46,-0.376 0.474,-0.341 0.474,-0.297L0.474,-0.106C0.474,-0.073 0.478,-0.052 0.486,-0.042C0.495,-0.032 0.513,-0.025 0.542,-0.022C0.547,-0.021 0.55,-0.016 0.55,-0.008Z" style="fill:rgb(0,27,51);fill-rule:nonzero;"/>
                </g>
                <g transform="matrix(301.546,0,0,301.546,750.155,1107.09)">
                    <path d="M0.196,-0.613C0.196,-0.599 0.191,-0.586 0.181,-0.576C0.171,-0.566 0.158,-0.561 0.144,-0.561C0.13,-0.561 0.117,-0.566 0.107,-0.576C0.097,-0.586 0.092,-0.599 0.092,-0.613C0.092,-0.627 0.097,-0.64 0.107,-0.65C0.117,-0.66 0.129,-0.665 0.144,-0.665C0.158,-0.665 0.171,-0.66 0.181,-0.65C0.191,-0.64 0.196,-0.627 0.196,-0.613ZM0.266,-0.008C0.266,0.001 0.263,0.006 0.258,0.006C0.244,0.006 0.227,0.005 0.206,0.003C0.182,0.001 0.161,-0 0.145,-0C0.128,-0 0.108,0.001 0.085,0.003C0.064,0.005 0.047,0.006 0.033,0.006C0.028,0.006 0.025,0.001 0.025,-0.008C0.025,-0.016 0.028,-0.021 0.033,-0.022C0.061,-0.025 0.08,-0.032 0.088,-0.042C0.096,-0.052 0.1,-0.073 0.1,-0.106L0.1,-0.291C0.1,-0.318 0.097,-0.335 0.09,-0.344C0.083,-0.352 0.068,-0.357 0.045,-0.36C0.04,-0.36 0.037,-0.364 0.037,-0.373C0.037,-0.381 0.04,-0.385 0.045,-0.385C0.08,-0.394 0.109,-0.404 0.131,-0.414C0.153,-0.424 0.167,-0.432 0.173,-0.439C0.176,-0.443 0.18,-0.445 0.184,-0.445C0.193,-0.445 0.198,-0.442 0.198,-0.437C0.193,-0.362 0.19,-0.304 0.19,-0.263L0.19,-0.106C0.19,-0.073 0.194,-0.052 0.202,-0.042C0.21,-0.032 0.229,-0.025 0.258,-0.022C0.263,-0.021 0.266,-0.016 0.266,-0.008Z" style="fill:rgb(0,27,51);fill-rule:nonzero;"/>
                </g>
                <g transform="matrix(301.546,0,0,301.546,834.587,1107.09)">
                    <path d="M0.543,-0.008C0.543,0.001 0.54,0.006 0.535,0.006C0.521,0.006 0.505,0.005 0.486,0.003C0.464,0.001 0.445,-0 0.429,-0C0.412,-0 0.393,0.001 0.372,0.003C0.352,0.005 0.335,0.006 0.322,0.006C0.317,0.006 0.314,0.001 0.314,-0.008C0.314,-0.016 0.317,-0.021 0.322,-0.022C0.345,-0.024 0.36,-0.031 0.367,-0.041C0.374,-0.051 0.378,-0.073 0.378,-0.106L0.378,-0.273C0.378,-0.31 0.371,-0.338 0.356,-0.355C0.341,-0.372 0.319,-0.381 0.288,-0.381C0.269,-0.381 0.252,-0.377 0.237,-0.37C0.222,-0.363 0.206,-0.35 0.189,-0.331L0.189,-0.106C0.189,-0.073 0.193,-0.051 0.2,-0.041C0.207,-0.031 0.222,-0.024 0.245,-0.022C0.25,-0.021 0.253,-0.016 0.253,-0.008C0.253,0.001 0.25,0.006 0.245,0.006C0.231,0.006 0.215,0.005 0.195,0.003C0.173,0.001 0.154,-0 0.138,-0C0.122,-0 0.103,0.001 0.082,0.003C0.062,0.005 0.046,0.006 0.032,0.006C0.027,0.006 0.024,0.001 0.024,-0.008C0.024,-0.016 0.027,-0.021 0.032,-0.022C0.061,-0.025 0.079,-0.032 0.088,-0.042C0.096,-0.052 0.1,-0.074 0.1,-0.106L0.1,-0.291C0.1,-0.318 0.097,-0.335 0.09,-0.344C0.083,-0.352 0.068,-0.357 0.044,-0.36C0.039,-0.36 0.036,-0.364 0.036,-0.373C0.036,-0.381 0.039,-0.385 0.044,-0.385C0.077,-0.393 0.105,-0.403 0.127,-0.413C0.149,-0.424 0.162,-0.432 0.168,-0.439C0.171,-0.443 0.175,-0.445 0.179,-0.445C0.188,-0.445 0.193,-0.442 0.193,-0.437L0.189,-0.374C0.237,-0.419 0.282,-0.441 0.323,-0.441C0.368,-0.441 0.404,-0.428 0.429,-0.402C0.455,-0.376 0.468,-0.341 0.468,-0.297L0.468,-0.106C0.468,-0.073 0.472,-0.052 0.48,-0.042C0.488,-0.032 0.506,-0.025 0.535,-0.022C0.54,-0.021 0.543,-0.016 0.543,-0.008Z" style="fill:rgb(0,27,51);fill-rule:nonzero;"/>
                </g>
                <g transform="matrix(301.546,0,0,301.546,999.835,1107.09)">
                    <path d="M0.536,-0.027C0.536,-0.02 0.533,-0.016 0.528,-0.016C0.509,-0.013 0.487,-0.009 0.462,-0.002C0.436,0.006 0.417,0.013 0.403,0.02C0.396,0.023 0.39,0.025 0.387,0.025C0.382,0.025 0.379,0.022 0.379,0.017L0.383,-0.037C0.348,0.002 0.303,0.021 0.248,0.021C0.19,0.021 0.141,-0.001 0.101,-0.046C0.06,-0.09 0.04,-0.143 0.04,-0.205C0.04,-0.275 0.062,-0.332 0.107,-0.376C0.152,-0.419 0.208,-0.441 0.276,-0.441C0.315,-0.441 0.35,-0.429 0.383,-0.405L0.383,-0.572C0.383,-0.599 0.38,-0.616 0.373,-0.625C0.366,-0.633 0.351,-0.638 0.327,-0.641C0.322,-0.642 0.319,-0.646 0.319,-0.654C0.319,-0.662 0.322,-0.667 0.327,-0.667C0.358,-0.674 0.386,-0.683 0.409,-0.693C0.432,-0.703 0.447,-0.713 0.455,-0.721C0.458,-0.724 0.462,-0.725 0.466,-0.726C0.475,-0.725 0.48,-0.723 0.48,-0.718C0.474,-0.645 0.472,-0.587 0.472,-0.544L0.472,-0.103C0.472,-0.08 0.475,-0.065 0.482,-0.057C0.488,-0.049 0.503,-0.043 0.528,-0.04C0.533,-0.04 0.536,-0.036 0.536,-0.027ZM0.383,-0.081L0.383,-0.337C0.383,-0.354 0.373,-0.371 0.353,-0.386C0.333,-0.401 0.311,-0.409 0.287,-0.409C0.19,-0.409 0.141,-0.341 0.141,-0.204C0.141,-0.15 0.153,-0.105 0.176,-0.07C0.199,-0.034 0.23,-0.016 0.268,-0.016C0.29,-0.016 0.309,-0.021 0.327,-0.031C0.345,-0.041 0.363,-0.057 0.383,-0.081Z" style="fill:rgb(0,27,51);fill-rule:nonzero;"/>
                </g>
            </g>
        </g>
        <g transform="matrix(1.23038,0,0,1.23038,-194.867,-114.039)">
            <g transform="matrix(4.66908,0,0,4.66908,-1090.99,-3075.81)">
                <path d="M328.767,753.603C330.813,757.599 333.689,759.597 337.392,759.597C342.753,759.597 347.432,755.235 351.428,746.512C354.693,739.494 356.326,733.597 356.326,728.821C356.326,726.238 355.838,724.24 354.864,722.827C353.889,721.414 352.5,720.707 350.697,720.707C347.773,720.707 344.703,722.632 341.486,726.482C338.416,730.283 335.809,734.523 333.664,739.202C332.836,741.054 332.068,743.027 331.362,745.123C330.655,747.218 329.985,749.363 329.351,751.556L328.767,753.603ZM324.316,777.131C322.799,784.611 317.399,805.422 317.399,805.422C316.766,807.956 316.449,810.1 316.449,811.855C316.449,813.56 316.985,814.925 318.057,815.948C319.129,816.972 320.518,817.483 322.224,817.483C326.366,817.483 330.679,814.096 335.163,807.322L335.455,806.884C335.553,806.396 335.626,806.007 335.675,805.714L340.28,780.129L347.444,777.131L341.011,801.182C339.939,805.129 339.403,808.297 339.403,810.685C339.403,812.245 339.671,813.512 340.207,814.486C340.743,815.461 341.45,815.948 342.327,815.948C343.838,815.948 346.25,814.145 349.564,810.539L350.733,811.562L350.002,812.366C347.225,815.632 345.178,817.837 343.862,818.982C342.546,820.127 341.328,820.7 340.207,820.7C338.696,820.7 337.417,819.932 336.369,818.397C335.321,816.862 334.797,814.949 334.797,812.659C334.797,811.928 334.822,811.245 334.87,810.612C329.802,817.337 324.782,820.7 319.812,820.7C317.326,820.7 315.34,819.981 313.854,818.543C312.367,817.106 311.624,815.193 311.624,812.805C311.624,810.953 311.892,808.687 312.428,806.007L317.399,780.129L330.009,720.195L337.027,717.198L332.202,738.178C335.809,730.917 339.208,725.69 342.4,722.498C345.592,719.306 349.089,717.71 352.89,717.71C355.814,717.71 358.129,718.782 359.835,720.926C361.54,723.071 362.393,726.019 362.393,729.772C362.393,733.573 361.626,737.472 360.09,741.468C358.555,745.464 356.399,749.095 353.621,752.36C348.601,758.403 343.07,761.424 337.027,761.424C333.226,761.424 330.107,760.425 327.67,758.427C327.67,758.427 325.566,770.967 324.316,777.131Z" style="fill:rgb(154,255,237);fill-opacity:0.72;fill-rule:nonzero;"/>
                <path d="M398.359,748.632L399.675,749.728C396.653,753.724 393.705,756.612 390.83,758.391C387.954,760.17 384.86,761.059 381.546,761.059C377.598,761.059 374.431,759.743 372.043,757.111C369.655,754.48 368.461,750.995 368.461,746.658C368.461,742.272 369.618,737.825 371.933,733.317C374.248,728.809 377.148,725.081 380.632,722.132C384.117,719.184 387.564,717.71 390.976,717.71C392.974,717.71 394.619,718.295 395.91,719.464C397.202,720.634 397.847,722.145 397.847,723.997C397.847,727.749 395.801,731.502 391.707,735.254C387.613,739.007 382.033,742.199 374.967,744.83C374.918,745.22 374.894,745.659 374.894,746.146C374.894,749.509 375.819,752.25 377.671,754.37C379.523,756.49 381.911,757.55 384.835,757.55C387.126,757.55 389.343,756.831 391.488,755.394C393.632,753.956 395.922,751.702 398.359,748.632ZM374.967,743.076C380.23,740.737 384.275,738.129 387.101,735.254C389.002,733.305 390.537,731.209 391.707,728.967C392.877,726.726 393.461,724.703 393.461,722.9C393.461,720.609 392.414,719.464 390.318,719.464C387.15,719.464 383.946,721.962 380.705,726.957C377.464,731.952 375.551,737.325 374.967,743.076Z" style="fill:rgb(154,255,237);fill-opacity:0.72;fill-rule:nonzero;"/>
                <path d="M434.617,748.632L435.933,749.728C432.912,753.724 429.963,756.612 427.088,758.391C424.213,760.17 421.118,761.059 417.804,761.059C413.857,761.059 410.689,759.743 408.301,757.111C405.913,754.48 404.719,750.995 404.719,746.658C404.719,742.272 405.876,737.825 408.191,733.317C410.506,728.809 413.406,725.081 416.89,722.132C420.375,719.184 423.823,717.71 427.234,717.71C429.232,717.71 430.877,718.295 432.169,719.464C433.46,720.634 434.106,722.145 434.106,723.997C434.106,727.749 432.059,731.502 427.965,735.254C423.872,739.007 418.291,742.199 411.225,744.83C411.176,745.22 411.152,745.659 411.152,746.146C411.152,749.509 412.078,752.25 413.93,754.37C415.782,756.49 418.17,757.55 421.094,757.55C423.384,757.55 425.602,756.831 427.746,755.394C429.89,753.956 432.181,751.702 434.617,748.632ZM411.225,743.076C416.488,740.737 420.533,738.129 423.36,735.254C425.26,733.305 426.796,731.209 427.965,728.967C429.135,726.726 429.72,724.703 429.72,722.9C429.72,720.609 428.672,719.464 426.576,719.464C423.409,719.464 420.204,721.962 416.963,726.957C413.723,731.952 411.81,737.325 411.225,743.076Z" style="fill:rgb(154,255,237);fill-opacity:0.72;fill-rule:nonzero;"/>
                <path d="M440.977,739.202C445.168,734.133 447.971,729.406 449.384,725.02C445.436,722.827 443.463,719.684 443.463,715.59C443.463,713.64 443.926,712.057 444.852,710.838C445.778,709.62 446.947,709.011 448.361,709.011C449.823,709.011 451.017,709.681 451.943,711.021C452.868,712.361 453.331,714.103 453.331,716.248C453.331,717.759 453.063,719.44 452.527,721.292C453.843,721.633 455.037,721.803 456.109,721.803C459.131,721.803 461.616,720.926 463.566,719.172L467.075,719.172L466.563,720.195C463.054,726.628 460.166,732.951 457.9,739.165C455.634,745.379 454.501,750.021 454.501,753.091C454.501,754.212 454.793,755.15 455.378,755.905C455.963,756.661 456.67,757.038 457.498,757.038C459.496,757.038 462.713,754.918 467.148,750.679L468.317,751.994C466.953,753.505 464.833,755.381 461.957,757.623C459.374,759.67 456.962,760.693 454.72,760.693C452.82,760.693 451.321,760.06 450.225,758.793C449.128,757.526 448.58,755.796 448.58,753.603C448.58,749.948 449.993,745.318 452.82,739.713C453.843,737.618 455.159,735.23 456.767,732.549C458.375,729.869 460.398,726.677 462.835,722.973L463.566,721.95C461.957,723.412 460.41,724.447 458.924,725.056C457.437,725.666 455.744,725.97 453.843,725.97C452.966,725.97 452.04,725.848 451.065,725.605C449.506,730.381 446.582,735.303 442.293,740.371L440.977,739.202ZM450.992,720.634C451.187,719.415 451.285,718.392 451.285,717.564C451.285,715.858 451.004,714.518 450.444,713.543C449.883,712.568 449.165,712.081 448.287,712.081C447.8,712.081 447.374,712.312 447.008,712.775C446.643,713.238 446.46,713.811 446.46,714.493C446.46,716.784 447.971,718.831 450.992,720.634Z" style="fill:rgb(154,255,237);fill-opacity:0.72;fill-rule:nonzero;"/>
                <path d="M497.339,736.058L496.681,739.348L478.844,739.348L479.502,736.058L497.339,736.058Z" style="fill:rgb(154,255,237);fill-opacity:0.72;fill-rule:nonzero;"/>
                <path d="M273.758,815.217L277.851,810.393C279.996,815.461 283.407,817.995 288.086,817.995C290.522,817.995 292.606,817.203 294.336,815.619C296.066,814.036 296.931,812.196 296.931,810.1C296.931,808.589 296.517,807.298 295.688,806.226C294.86,805.154 292.886,803.351 289.767,800.816C286.892,798.477 284.954,796.637 283.955,795.297C282.956,793.957 282.457,792.41 282.457,790.655C282.457,788.365 283.127,786.245 284.467,784.295C285.807,782.346 287.598,780.774 289.84,779.58C292.082,778.386 294.445,777.789 296.931,777.789C299.124,777.789 300.964,778.338 302.45,779.434C303.936,780.531 304.68,781.932 304.68,783.637C304.68,785.879 303.729,787.414 301.829,788.243C301.536,785.952 300.671,784.161 299.233,782.87C297.796,781.578 295.956,780.933 293.714,780.933C291.716,780.933 289.974,781.578 288.488,782.87C287.001,784.161 286.258,785.636 286.258,787.293C286.258,789.339 287.525,791.362 290.059,793.36L294.299,796.796C298.442,800.061 300.513,803.399 300.513,806.811C300.513,809.345 299.794,811.721 298.356,813.938C296.919,816.155 294.969,817.922 292.508,819.238C290.047,820.554 287.452,821.212 284.723,821.212C280.385,821.212 276.73,819.214 273.758,815.217Z" style="fill:rgb(154,255,237);fill-opacity:0.72;fill-rule:nonzero;"/>
                <path d="M349.71,848.917L363.526,780.129L370.544,777.131L365.719,798.112C369.326,790.85 372.725,785.623 375.917,782.431C379.109,779.239 382.606,777.643 386.407,777.643C389.331,777.643 391.646,778.715 393.352,780.86C395.057,783.004 395.91,785.952 395.91,789.705C395.91,793.506 395.143,797.405 393.608,801.401C392.072,805.397 389.916,809.028 387.138,812.293C382.118,818.336 376.587,821.358 370.544,821.358C366.743,821.358 363.624,820.359 361.187,818.361L353.658,848.917L349.71,848.917ZM362.284,813.536C364.33,817.532 367.206,819.53 370.91,819.53C376.27,819.53 380.949,815.169 384.945,806.445C388.21,799.427 389.843,793.531 389.843,788.755C389.843,786.172 389.355,784.174 388.381,782.76C387.406,781.347 386.017,780.64 384.214,780.64C381.29,780.64 378.22,782.565 375.003,786.415C371.933,790.217 369.326,794.457 367.181,799.135C366.353,800.987 365.585,802.961 364.879,805.056C364.172,807.152 363.502,809.296 362.868,811.489L362.284,813.536Z" style="fill:rgb(154,255,237);fill-opacity:0.72;fill-rule:nonzero;"/>
                <path d="M396.934,848.917L410.75,780.129L417.768,777.131L412.943,798.112C416.549,790.85 419.948,785.623 423.141,782.431C426.333,779.239 429.829,777.643 433.631,777.643C436.555,777.643 438.87,778.715 440.575,780.86C442.281,783.004 443.134,785.952 443.134,789.705C443.134,793.506 442.366,797.405 440.831,801.401C439.296,805.397 437.139,809.028 434.362,812.293C429.342,818.336 423.811,821.358 417.768,821.358C413.966,821.358 410.847,820.359 408.411,818.361L400.881,848.917L396.934,848.917ZM409.507,813.536C411.554,817.532 414.429,819.53 418.133,819.53C423.494,819.53 428.172,815.169 432.169,806.445C435.434,799.427 437.066,793.531 437.066,788.755C437.066,786.172 436.579,784.174 435.604,782.76C434.63,781.347 433.241,780.64 431.438,780.64C428.513,780.64 425.443,782.565 422.227,786.415C419.156,790.217 416.549,794.457 414.405,799.135C413.576,800.987 412.809,802.961 412.102,805.056C411.396,807.152 410.725,809.296 410.092,811.489L409.507,813.536Z" style="fill:rgb(154,255,237);fill-opacity:0.72;fill-rule:nonzero;"/>
                <path d="M449.201,805.86C449.201,801.474 450.383,797.1 452.747,792.739C455.11,788.377 458.168,784.831 461.921,782.102C465.673,779.373 469.499,778.009 473.398,778.009C477.491,778.009 480.793,779.361 483.303,782.066C485.813,784.771 487.068,788.267 487.068,792.556C487.068,797.234 485.91,801.767 483.595,806.153C481.281,810.539 478.235,814.133 474.458,816.935C470.681,819.737 466.867,821.139 463.017,821.139C458.875,821.139 455.537,819.737 453.002,816.935C450.468,814.133 449.201,810.441 449.201,805.86ZM480.489,789.778C480.489,786.854 479.77,784.442 478.332,782.541C476.894,780.64 475.055,779.69 472.813,779.69C470.766,779.69 468.805,780.348 466.928,781.664C465.052,782.98 463.334,784.905 461.775,787.439C460.02,790.363 458.57,793.774 457.425,797.673C456.28,801.572 455.707,805.032 455.707,808.053C455.707,811.66 456.414,814.438 457.827,816.387C459.24,818.336 461.263,819.311 463.895,819.311C468.134,819.311 471.863,816.363 475.079,810.466C476.736,807.444 478.052,804.057 479.027,800.305C480.001,796.552 480.489,793.043 480.489,789.778Z" style="fill:rgb(154,255,237);fill-opacity:0.72;fill-rule:nonzero;"/>
                <path d="M493.062,799.135C497.253,794.067 500.055,789.339 501.469,784.953C497.521,782.76 495.548,779.617 495.548,775.523C495.548,773.574 496.011,771.99 496.936,770.772C497.862,769.553 499.032,768.944 500.445,768.944C501.907,768.944 503.101,769.614 504.027,770.954C504.953,772.295 505.416,774.037 505.416,776.181C505.416,777.692 505.148,779.373 504.612,781.225C505.928,781.566 507.122,781.737 508.194,781.737C511.216,781.737 513.701,780.86 515.65,779.105L519.159,779.105L518.648,780.129C515.139,786.562 512.251,792.885 509.985,799.098C507.719,805.312 506.586,809.954 506.586,813.024C506.586,814.145 506.878,815.083 507.463,815.839C508.048,816.594 508.755,816.972 509.583,816.972C511.581,816.972 514.798,814.852 519.232,810.612L520.402,811.928C519.037,813.439 516.918,815.315 514.042,817.557C511.459,819.603 509.047,820.627 506.805,820.627C504.905,820.627 503.406,819.993 502.309,818.726C501.213,817.459 500.665,815.729 500.665,813.536C500.665,809.881 502.078,805.251 504.905,799.647C505.928,797.551 507.244,795.163 508.852,792.483C510.46,789.802 512.483,786.61 514.919,782.906L515.65,781.883C514.042,783.345 512.495,784.381 511.009,784.99C509.522,785.599 507.829,785.904 505.928,785.904C505.051,785.904 504.125,785.782 503.15,785.538C501.591,790.314 498.667,795.236 494.378,800.305L493.062,799.135ZM503.077,780.567C503.272,779.349 503.369,778.325 503.369,777.497C503.369,775.791 503.089,774.451 502.529,773.476C501.968,772.502 501.249,772.014 500.372,772.014C499.885,772.014 499.458,772.246 499.093,772.709C498.727,773.172 498.545,773.744 498.545,774.427C498.545,776.717 500.055,778.764 503.077,780.567Z" style="fill:rgb(154,255,237);fill-opacity:0.72;fill-rule:nonzero;"/>
                <path d="M539.408,780.86L533.853,805.202C533.268,807.883 532.976,809.783 532.976,810.904C532.976,812.659 533.39,814.072 534.218,815.144C535.047,816.216 536.143,816.752 537.508,816.752C538.824,816.752 540.03,816.375 541.126,815.619C542.223,814.864 543.892,813.292 546.134,810.904L547.011,810.027L548.108,811.124C545.232,814.633 542.832,817.106 540.907,818.543C538.982,819.981 537.094,820.7 535.242,820.7C532.902,820.7 531.038,819.932 529.649,818.397C528.26,816.862 527.566,814.852 527.566,812.366C527.566,810.514 527.932,807.834 528.663,804.325L533.414,780.86L526.396,780.86L526.908,778.374L533.926,778.374L538.02,758.637L545.037,755.859L539.92,778.374L551.763,778.374L551.251,780.86L539.408,780.86Z" style="fill:rgb(154,255,237);fill-opacity:0.72;fill-rule:nonzero;"/>
            </g>
        </g>
    </g>
</svg>
